<?xml version="1.0" encoding="UTF-8" standalone="no"?>
<!-- Created with Inkscape (http://www.inkscape.org/) -->

<svg
   xmlns:dc="http://purl.org/dc/elements/1.1/"
   xmlns:cc="http://creativecommons.org/ns#"
   xmlns:rdf="http://www.w3.org/1999/02/22-rdf-syntax-ns#"
   xmlns:svg="http://www.w3.org/2000/svg"
   xmlns="http://www.w3.org/2000/svg"
   version="1.1"
   width="1637.275"
   height="446.71335"
   id="svg2">
  <defs
     id="defs4">
    <clipPath
       id="clipPath3095">
      <path
         d="M 0,3573.71 0,0 l 13098.2,0 0,3573.71 -13098.2,0 z"
         id="path3097" />
    </clipPath>
  </defs>
  <metadata
     id="metadata7">
    <rdf:RDF>
      <cc:Work
         rdf:about="">
        <dc:format>image/svg+xml</dc:format>
        <dc:type
           rdf:resource="http://purl.org/dc/dcmitype/StillImage" />
        <dc:title></dc:title>
      </cc:Work>
    </rdf:RDF>
  </metadata>
  <g
     transform="translate(701.49464,-117.57694)"
     id="layer1">
    <g
       transform="matrix(1.25,0,0,-1.25,-701.49464,564.29069)"
       id="g3087">
      <g
         transform="scale(0.1,0.1)"
         id="g3089">
        <g
           id="g3091">
          <g
             clip-path="url(#clipPath3095)"
             id="g3093">
            <path
               d="m 1513.28,3552.6 c -196.71,68.55 -411.74,-35.33 -480.3,-232.05 -64.839,-186.06 24.65,-388.43 200.99,-467.82 L 475.824,741.25 C 286.391,792.742 86.7109,689.629 21.1094,501.41 -47.4414,304.691 56.4453,89.6797 253.148,21.1211 449.859,-47.4414 664.887,56.4414 733.445,253.148 798.215,438.98 709.02,641.09 533.121,720.68 l 757.509,2111.78 c 189.42,-51.48 389.09,51.63 454.69,239.84 68.55,196.71 -35.34,411.73 -232.04,480.3"
               id="path3099"
               style="fill:#711f50;fill-opacity:1;fill-rule:nonzero;stroke:none" />
            <path
               d="m 2744.48,1331.82 148.98,443.63 c 91.29,271.86 123.47,386.86 123.47,386.86 l 13.05,0 c 0,0 46.53,-144.45 131.14,-378.09 l 158.8,-452.4 -575.44,0 z m 96.99,1359.63 -794.4,-2212.829 411.83,0 177.19,525.269 798.2,0 188.03,-525.269 418.51,0 -845.41,2212.829 -353.95,0"
               id="path3101"
               style="fill:#711f50;fill-opacity:1;fill-rule:nonzero;stroke:none" />
            <path
               d="m 4787.49,1028.52 -11.95,0 c 0,0 -68.7,211.36 -139.96,417.17 l -438.8,1245.76 -427.47,0 831.21,-2212.829 362.05,0 800.03,2212.829 -427.92,0 -418.69,-1246.12 c -67.92,-195.53 -128.5,-416.81 -128.5,-416.81"
               id="path3103"
               style="fill:#711f50;fill-opacity:1;fill-rule:nonzero;stroke:none" />
            <path
               d="m 6055.62,478.621 397.879,0 0,2212.82 -397.879,0 0,-2212.82 z"
               id="path3105"
               style="fill:#711f50;fill-opacity:1;fill-rule:nonzero;stroke:none" />
            <path
               d="m 8328.44,1216.12 -7.54,-1.82 -1043.64,1477.15 -294.12,0 0,-2212.829 387.51,0 0,645.259 c 0,349.39 -13.96,830.01 -13.96,830.01 l 8.44,1.49 1040.88,-1476.759 294.12,0 0,2212.829 -387.52,0 0,-705.77 c 0,-264.96 15.83,-769.56 15.83,-769.56"
               id="path3107"
               style="fill:#711f50;fill-opacity:1;fill-rule:nonzero;stroke:none" />
            <path
               d="m 12588,1989.26 c 0,-197.11 -130.6,-324.71 -332.6,-324.71 l -301.4,0 0,649.41 301.4,0 c 202,0 332.6,-127.61 332.6,-324.7 m 42.2,-624.57 c 212.4,121.03 361.3,298.05 361.3,624.57 0,406.87 -303,702.19 -720.5,702.19 l -715,0 0,-2212.829 398,0 0,828.249 310.4,0 399.7,-828.249 434.1,0 -468,886.069"
               id="path3109"
               style="fill:#711f50;fill-opacity:1;fill-rule:nonzero;stroke:none" />
            <path
               d="m 10127.9,2330.37 c -418.5,0 -719.04,-316.33 -719.04,-745.35 0,-434.83 307.14,-745.149 719.24,-745.149 421.2,0 718.9,319.399 718.9,745.149 0,439.5 -312.4,745.35 -719.1,745.35 m 1131.8,-745.38 c 0,-625.22 -506.9,-1132.029 -1132.3,-1132.029 -625.31,0 -1132.25,506.809 -1132.25,1132.029 0,625.19 506.94,1132.01 1132.25,1132.01 625.4,0 1132.3,-506.82 1132.3,-1132.01"
               id="path3111"
               style="fill:#711f50;fill-opacity:1;fill-rule:nonzero;stroke:none" />
          </g>
        </g>
      </g>
    </g>
  </g>
</svg>
