<svg width="889" height="200" viewBox="0 0 889 200" fill="none" xmlns="http://www.w3.org/2000/svg">
<g clip-path="url(#clip0_39_559)">
<path d="M68.9642 156.8C67.5606 157.22 66.4303 157.59 65.2801 157.89C64.13 158.191 62.9599 158.422 61.7302 158.7C60.7291 156.39 60.277 154.045 59.5441 151.72C59.3901 152.137 59.2336 152.554 59.0821 152.972C56.419 160.191 51.8108 165.711 44.5719 168.555C36.3144 171.802 28.2408 171.168 20.7634 166.198C16.3713 163.279 13.6487 159.001 11.8923 154.095C11.4626 152.892 11.1197 151.65 10.8316 150.403C10.6304 149.529 10.2751 148.836 9.58949 148.219C7.33135 146.187 5.40362 143.865 3.90068 141.216C-0.317481 133.784 -0.339839 126.229 3.49824 118.677C7.62946 110.549 14.2995 105.916 23.3494 104.791C25.9852 104.463 28.6358 104.582 31.2591 105.066C31.7435 105.156 32.2279 105.24 32.8291 105.163C31.9895 104.366 31.1275 103.588 30.3126 102.766C29.473 101.917 28.678 101.02 27.7961 100.071C29.2693 98.0884 31.0405 96.4985 32.7596 94.69C32.3074 94.7621 31.8553 94.8291 31.4032 94.9036C22.5098 96.3544 14.5927 94.3944 8.15362 87.8908C3.73176 83.4242 1.21775 77.9465 0.760659 71.6367C0.407904 66.7751 1.73943 62.3036 4.26834 58.1723C5.72408 55.7925 7.49779 53.666 9.56961 51.8054C10.2503 51.1942 10.6254 50.5111 10.8216 49.6292C11.7582 45.416 13.43 41.5258 16.1453 38.1373C20.0703 33.2385 25.2349 30.5705 31.4131 29.7805C36.6821 29.1073 41.7374 29.8302 46.4748 32.2895C52.6878 35.5165 56.7494 40.6091 59.1119 47.1301C59.251 47.5152 59.3926 47.8977 59.6063 48.4815C60.277 46.0197 60.8955 43.7516 61.5414 41.3792C64.1076 41.6177 66.3856 42.4399 68.7978 42.979C68.5146 42.6461 68.2314 42.3133 67.9507 41.9779C63.3773 36.5151 61.0421 30.2873 61.4694 23.1055C61.9911 14.3686 68.2786 4.51375 77.5123 1.33398C82.6596 -0.437249 87.8515 -0.365207 93.0162 1.09798C94.7576 1.58985 96.3053 1.62215 98.0516 1.11289C102.401 -0.15405 106.833 -0.390049 111.292 0.668218C116.045 1.79604 119.977 4.25788 123.144 7.93697C126.627 11.9812 128.908 16.6018 129.519 21.9528C130.326 29.0154 128.302 35.278 124.041 40.8799C123.495 41.5978 122.904 42.2834 122.133 43.2274C124.69 42.4424 126.945 41.6525 129.402 41.3693C130.356 43.5827 130.845 45.8756 131.332 48.2381C131.862 48.012 131.847 47.5077 131.983 47.1251C133.25 43.5752 135.081 40.3532 137.667 37.6032C143.237 31.6809 150.123 29.0874 158.209 29.6414C162.28 29.9196 166.101 31.0251 169.554 33.2484C174.346 36.3313 177.392 40.7557 179.262 46.0544C179.675 47.222 180.047 48.4169 180.286 49.6267C180.475 50.5807 180.929 51.2539 181.632 51.8923C183.883 53.9343 185.796 56.2695 187.284 58.9226C191.385 66.2435 191.42 73.6886 187.709 81.1338C183.642 89.2894 177.019 93.9919 167.977 95.1893C165.219 95.5545 162.444 95.4328 159.699 94.9086C159.257 94.8241 158.815 94.7471 158.139 94.6254C159.963 96.4612 161.622 98.1356 163.356 99.8845C161.831 101.929 160.035 103.544 158.326 105.32C159.282 105.173 160.236 105.007 161.197 104.885C177.158 102.873 188.486 113.928 190.24 127.163C190.941 132.44 189.617 137.344 186.832 141.86C185.344 144.272 183.53 146.411 181.439 148.314C180.867 148.833 180.514 149.392 180.343 150.17C179.493 154.045 178.038 157.677 175.695 160.909C172.019 165.981 167.055 168.99 160.892 170.041C155.258 171.002 149.835 170.381 144.72 167.763C138.484 164.57 134.418 159.48 132.021 152.974C131.891 152.626 131.775 152.271 131.635 151.928C131.613 151.874 131.504 151.856 131.419 151.814C130.808 154.06 130.197 156.305 129.561 158.631C127.012 158.392 124.762 157.6 122.34 157.028C122.595 157.349 122.844 157.677 123.11 157.99C126.232 161.651 128.374 165.8 129.253 170.547C130.612 177.886 128.833 184.494 124.446 190.446C120.722 195.499 115.801 198.678 109.563 199.689C105.315 200.378 101.144 199.901 97.0629 198.641C96.027 198.321 95.1054 198.311 94.0645 198.631C89.9432 199.901 85.7325 200.39 81.4423 199.675C74.5785 198.529 69.4213 194.81 65.6727 189.055C59.256 179.195 60.1205 167.263 67.8712 158.116C68.1792 157.754 68.4773 157.379 68.9468 156.805L68.9642 156.8ZM38.7241 99.9888C40.3836 102.058 42.8056 104.053 45.5954 105.663C51.9326 109.324 58.2673 112.996 64.6243 116.623C65.4044 117.068 65.7049 117.555 65.7 118.464C65.6627 125.66 65.6627 132.857 65.6925 140.056C65.7 141.582 65.8043 143.117 65.9931 144.63C66.1869 146.175 66.4726 147.715 67.1806 149.216C67.6302 149.129 68.0326 149.069 68.4276 148.972C70.9391 148.366 73.2892 147.36 75.5225 146.073C81.8274 142.439 88.1397 138.812 94.4247 135.138C95.2395 134.661 95.8208 134.623 96.658 135.115C102.901 138.775 109.183 142.372 115.448 145.991C117.754 147.323 120.173 148.373 122.767 148.992C123.154 149.084 123.554 149.124 123.969 149.191C124.108 148.821 124.223 148.56 124.31 148.289C125.127 145.7 125.442 143.035 125.45 140.337C125.472 133.14 125.487 125.941 125.427 118.744C125.418 117.584 125.82 116.998 126.791 116.444C132.94 112.951 139.058 109.401 145.177 105.854C146.141 105.295 147.087 104.691 147.994 104.045C149.609 102.898 151.107 101.611 152.326 100.086C152.277 99.9267 152.274 99.8323 152.227 99.7752C152.016 99.5218 151.797 99.2733 151.569 99.0324C149.755 97.132 147.676 95.5769 145.405 94.2677C139.245 90.7128 133.084 87.1554 126.923 83.6006C126.458 83.3323 126.001 83.0565 125.46 82.7361C125.46 82.2516 125.46 81.7598 125.46 81.2679C125.46 74.1532 125.49 67.0384 125.437 59.9237C125.425 58.1127 125.214 56.2918 124.973 54.4933C124.806 53.2412 124.533 51.9867 123.912 50.7868C123.507 50.8638 123.144 50.9185 122.789 51.003C120.193 51.6166 117.774 52.6674 115.468 53.9989C109.273 57.5786 103.077 61.1534 96.8791 64.7306C96.4518 64.9766 96.0171 65.2076 95.5525 65.4635C95.1377 65.2324 94.7377 65.0188 94.3477 64.7927C88.0776 61.1757 81.81 57.5563 75.5424 53.9393C73.237 52.6102 70.8075 51.5818 68.2115 50.9732C67.8637 50.8912 67.5035 50.8688 67.111 50.8142C66.9694 51.2166 66.8502 51.5222 66.7582 51.8327C65.9981 54.3889 65.6751 57.0048 65.6776 59.6678C65.6826 66.949 65.6627 74.2277 65.7 81.5089C65.7049 82.4081 65.4367 82.91 64.6467 83.3621C58.3244 86.9691 52.027 90.6184 45.7295 94.2677C44.8352 94.7844 43.9633 95.3433 43.1236 95.9445C41.5114 97.0972 40.0084 98.3815 38.7241 99.9838V99.9888ZM54.7596 68.2209C54.7596 66.8571 54.7894 65.4908 54.7521 64.1294C54.7025 62.3557 54.7298 60.5671 54.4987 58.8133C53.9224 54.4411 52.0642 50.675 48.718 47.7412C44.5048 44.0472 39.5315 42.7828 34.0638 43.5255C27.7266 44.3851 23.8016 48.084 22.0701 54.1802C21.8664 54.8932 21.6776 55.6236 21.5981 56.3564C21.5285 56.9924 21.2304 57.3873 20.7659 57.7873C19.9535 58.4878 19.1561 59.2182 18.4432 60.0156C15.5366 63.2774 14.0983 67.0732 14.8858 71.4355C15.8695 76.8808 18.7338 81.1959 23.5184 84.0154C29.5003 87.543 35.6214 87.2002 41.6008 83.9881C45.7842 81.7399 49.8359 79.2458 53.9696 76.9032C54.6205 76.5355 54.7745 76.0908 54.767 75.4102C54.7372 73.0129 54.7546 70.6157 54.7546 68.2184L54.7596 68.2209ZM95.5202 52.8189C95.6768 52.7568 95.7985 52.727 95.9028 52.6674C100.233 50.1683 104.595 47.7213 108.883 45.1502C112.226 43.1455 114.758 40.3433 116.33 36.7437C119.324 29.8848 117.468 21.5727 111.822 16.418C108.803 13.663 105.233 12.5054 101.202 12.9824C99.5769 13.1737 97.9821 13.6854 96.3972 14.1375C95.8084 14.3064 95.319 14.3487 94.7352 14.1375C93.7664 13.7848 92.7752 13.4742 91.7691 13.2581C87.6925 12.3886 83.8545 12.9227 80.4586 15.469C75.4653 19.2127 71.5254 27.0578 74.2183 35.2333C75.6939 39.7123 78.6352 43.0362 82.6546 45.411C86.7088 47.8083 90.8052 50.1335 94.8868 52.4885C95.0979 52.6102 95.3215 52.7171 95.5202 52.8214V52.8189ZM95.56 147.116C90.9493 149.792 86.4306 152.38 81.9541 155.031C80.1654 156.092 78.6526 157.51 77.3335 159.125C70.3429 167.691 73.2817 179.028 80.4263 184.506C84.1575 187.368 88.3906 187.673 92.81 186.501C93.7267 186.257 94.621 185.691 95.5202 185.698C96.4667 185.706 97.3958 186.267 98.3522 186.516C102.126 187.502 105.802 187.403 109.285 185.438C111.764 184.039 113.585 181.98 115.053 179.585C119.361 172.567 118.509 164.036 112.833 158.087C111.759 156.959 110.542 155.896 109.218 155.093C104.732 152.378 100.163 149.792 95.56 147.116ZM54.7596 132.013C54.7596 129.533 54.7397 127.052 54.772 124.572C54.7819 123.879 54.5956 123.454 53.9572 123.092C49.8583 120.769 45.8115 118.357 41.7002 116.059C37.4621 113.689 32.9186 112.835 28.1762 114.064C21.7347 115.734 17.6109 119.992 15.4745 126.192C13.8921 130.788 14.6324 135.1 17.606 138.946C18.5326 140.146 19.6778 141.187 20.7857 142.233C21.2329 142.655 21.4987 143.055 21.603 143.673C21.772 144.689 22.008 145.703 22.3284 146.682C23.655 150.733 26.1218 153.796 30.1363 155.463C32.1087 156.283 34.183 156.663 36.307 156.668C43.5285 156.678 49.0733 153.707 52.5859 147.293C54.0839 144.558 54.6925 141.564 54.7472 138.464C54.7869 136.315 54.7546 134.166 54.7546 132.015L54.7596 132.013ZM136.385 132.147C136.408 132.147 136.43 132.147 136.452 132.147C136.452 134.753 136.306 137.368 136.485 139.959C136.82 144.814 138.696 149.024 142.407 152.264C146.849 156.144 152.068 157.334 157.804 156.35C163.006 155.456 166.573 152.482 168.459 147.559C168.928 146.331 169.204 145.025 169.495 143.738C169.636 143.107 169.862 142.618 170.379 142.188C171.201 141.502 171.991 140.759 172.702 139.957C175.439 136.869 176.957 133.275 176.299 129.136C175.238 122.448 171.616 117.522 165.324 114.862C159.794 112.522 154.373 113.297 149.224 116.168C145.214 118.404 141.277 120.762 137.285 123.03C136.629 123.402 136.355 123.82 136.368 124.582C136.41 127.104 136.383 129.628 136.383 132.152L136.385 132.147ZM136.385 67.8061C136.385 70.3697 136.403 72.9359 136.373 75.4996C136.365 76.148 136.534 76.5554 137.128 76.8932C141.296 79.2656 145.41 81.7374 149.611 84.0502C153.824 86.368 158.343 87.1703 163.043 85.9183C169.43 84.2166 173.519 79.9786 175.64 73.8228C177.26 69.1227 176.438 64.7555 173.357 60.8602C172.518 59.797 171.524 58.8381 170.506 57.9388C169.904 57.4072 169.577 56.8483 169.462 56.0732C169.348 55.2981 169.162 54.528 168.933 53.7803C167.676 49.669 165.314 46.4668 161.292 44.6807C159.183 43.7441 156.947 43.3417 154.649 43.3367C148.446 43.3218 143.371 45.6545 139.719 50.7421C137.431 53.9293 136.437 57.5712 136.388 61.4763C136.36 63.5854 136.383 65.6945 136.383 67.8061H136.385Z" fill="#161515"/>
<path d="M95.5626 78.8906C95.8831 79.4098 96.1042 79.7526 96.3104 80.1078C97.9052 82.8628 99.5224 85.6078 101.073 88.3901C101.487 89.1329 101.952 89.431 102.819 89.4186C106.004 89.3664 109.188 89.3987 112.373 89.3987C112.781 89.3987 113.19 89.3987 113.834 89.3987C113.58 89.9055 113.426 90.2582 113.233 90.5936C111.625 93.3908 110.041 96.2004 108.379 98.9653C107.907 99.7503 107.944 100.327 108.403 101.094C110.043 103.824 111.608 106.597 113.195 109.359C113.394 109.705 113.561 110.067 113.809 110.552C113.25 110.579 112.853 110.614 112.458 110.616C109.231 110.621 106.004 110.646 102.779 110.601C101.972 110.589 101.517 110.832 101.117 111.553C99.5498 114.37 97.9102 117.15 96.293 119.942C96.0918 120.29 95.8682 120.625 95.5701 121.1C95.2769 120.645 95.0484 120.317 94.8472 119.972C93.2722 117.251 91.6674 114.549 90.1496 111.796C89.6726 110.934 89.1484 110.571 88.1299 110.596C84.9874 110.668 81.8424 110.624 78.6999 110.621C78.3 110.621 77.9 110.586 77.2591 110.559C79.2787 106.964 81.2934 103.569 83.3156 100.014C81.3456 96.5979 79.3533 93.1374 77.2417 89.4782C77.8777 89.4484 78.3099 89.4111 78.7397 89.4111C81.9244 89.4062 85.1091 89.3788 88.2939 89.4285C89.1534 89.4409 89.6279 89.1577 90.0452 88.41C91.5929 85.6277 93.2101 82.8827 94.805 80.1277C95.0087 79.7749 95.2347 79.4346 95.5651 78.903L95.5626 78.8906Z" fill="#161515"/>
</g>
<path fill-rule="evenodd" clip-rule="evenodd" d="M320.199 26.8206H259.444V170.502H320.608C349.554 170.502 367.411 152.444 367.411 130.683C367.411 112.208 354.477 98.6652 333.541 95.3777C349.554 90.8634 360.435 77.5208 360.226 61.0992C360.018 38.7279 342.57 26.8206 320.199 26.8206ZM341.343 63.9697C341.343 77.1038 331.489 88.6022 315.684 88.6022H277.918V42.4163H316.711C333.341 42.4163 341.343 50.8356 341.343 63.9697ZM348.119 128.638C348.119 146.286 334.568 155.115 318.146 155.115L318.154 155.123H277.918V103.597H318.972C336.011 103.597 348.119 113.86 348.119 128.638ZM424.068 64.3861C392.66 64.3861 374.186 87.9922 374.186 118.783C374.186 149.782 392.66 173.179 424.068 173.179C455.476 173.179 473.95 149.573 473.95 118.783C473.95 87.9922 455.476 64.3861 424.068 64.3861ZM455.268 118.574C455.268 138.901 446.648 158.193 424.068 158.193C401.288 158.193 392.869 138.692 392.869 118.574C392.869 98.4562 401.488 79.3644 424.068 79.3644C446.648 79.3644 455.268 98.2477 455.268 118.574ZM505.222 32.7699H485.978V53.1526H505.222V32.7699ZM486.467 67.0485H504.533V170.502H486.467V67.0485ZM530.391 146.286V81.8344H513.97V67.0565H525.668C528.539 67.0565 530.391 65.2123 530.391 62.5421V32.7699H548.248V67.0485H571.036V81.8263H548.248V143.616C548.248 152.444 550.71 155.523 558.921 155.523H573.498V170.51H553.588C537.784 170.51 530.391 163.734 530.391 146.286ZM616.405 110.772C599.575 113.034 578.839 118.366 578.839 142.589L578.847 142.597C578.847 160.863 592.39 173.179 613.535 173.179C626.268 173.179 640.637 168.665 649.665 155.322V157.784C649.665 165.378 654.997 170.509 664.852 170.509H677.168V155.523H670.802C668.332 155.523 666.488 153.887 666.488 151.626V101.335C666.488 78.1376 653.346 64.3861 625.843 64.3861C601.21 64.3861 584.588 78.1376 582.327 98.8731H600.392C602.036 86.148 610.664 78.9635 626.26 78.9635C641.855 78.9635 648.631 87.1743 648.631 97.2294C648.631 101.952 646.987 106.667 638.776 107.902L616.405 110.772ZM648.623 124.732C648.623 145.051 636.515 158.602 618.041 158.602V158.594C605.516 158.594 597.514 152.235 597.514 141.763C597.514 131.291 604.281 125.751 619.885 123.289L638.151 120.419C641.647 119.801 645.135 119.184 648.623 117.339V124.732ZM687.223 67.0482H705.281V82.652C712.056 71.1536 725.19 64.3861 740.177 64.3861C762.548 64.3861 778.36 78.5466 778.36 106.058V170.509H760.295V107.084C760.295 89.0186 750.031 79.5809 734.844 79.5809C718.631 79.5809 705.289 92.5146 705.289 110.78V170.517H687.223V67.0482ZM839.114 64.3861C807.706 64.3861 789.232 87.9922 789.232 118.783C789.232 149.782 807.706 173.179 839.114 173.179C870.522 173.179 888.997 149.573 888.997 118.783C888.997 87.9922 870.522 64.3861 839.114 64.3861ZM870.314 118.574C870.314 138.901 861.694 158.193 839.114 158.193C816.334 158.193 807.915 138.692 807.915 118.574C807.915 98.4562 816.535 79.3644 839.114 79.3644C861.694 79.3644 870.314 98.2477 870.314 118.574Z" fill="#161515"/>
<defs>
<clipPath id="clip0_39_559">
<rect width="189.763" height="200" fill="white" transform="translate(0.67627)"/>
</clipPath>
</defs>
</svg>
