<svg xmlns="http://www.w3.org/2000/svg" width="141" height="32" viewBox="0 0 141 32">
    <g fill="none" fill-rule="evenodd">
        <g fill="#F4163B">
            <g>
                <g>
                    <g>
                        <path d="M125.483 3.848c7.766 0 13.08 5.89 13.08 13.11.018 2.559-.69 5.07-2.042 7.239l3.429 3.402c.132.131.206.309.207.495.001.186-.072.365-.202.497l-3.026 3.064c-.144.145-.344.22-.547.206-.203-.014-.39-.116-.513-.279-1.056-1.396-1.42-3.197-.99-4.895.02-.07-.01-.143-.07-.18-.062-.037-.14-.028-.192.021-2.278 2.192-5.424 3.542-9.134 3.542-7.92 0-13.08-5.89-13.08-13.111 0-7.222 4.803-13.111 13.08-13.111zM19.179 0c.154 0 .302.062.412.171.109.11.17.258.17.413v3.955c0 .155-.061.303-.17.413-.11.11-.258.17-.412.17H6.374c-.154 0-.302.062-.411.172-.11.11-.171.258-.171.412l.004 6.935v.002h10.366c.154 0 .302.061.412.17.109.11.17.259.17.413v4.59c0 .322-.26.583-.582.583h-5.275l-.255-.014c-1.86-.14-3.546-1.167-4.525-2.77-.027-.06-.084-.1-.149-.105-.09 0-.162.072-.162.161v8.68c0 .323.26.584.582.584h12.805c.321 0 .582.262.582.584v3.956c0 .154-.062.303-.17.412-.11.11-.258.171-.412.171H.586c-.155 0-.303-.061-.412-.17-.109-.11-.17-.259-.17-.413L0 .584C0 .429.061.28.17.17c.11-.11.258-.17.412-.17zm88.562 8.846c.322 0 .582.261.582.583v20.046c0 .322-.26.583-.582.583h-4.287c-.321 0-.582-.261-.582-.583V9.429c0-.154.061-.303.17-.412.11-.11.258-.171.412-.171h4.287zM35.1 8.543c2.428-.075 4.669 1.3 5.707 3.5 1.235-1.878 3.79-3.5 6.389-3.5 4.13 0 7.325 2.817 7.325 9.22v11.712c0 .154-.062.303-.17.412-.11.11-.258.171-.412.171H49.65c-.155 0-.303-.061-.412-.17-.11-.11-.17-.259-.17-.413V17.763c0-3.415-1.79-4.098-3.28-4.098-1.405 0-3.875 1.025-3.875 4.867v10.943c0 .154-.062.303-.171.412-.11.11-.257.171-.412.171h-4.287c-.154 0-.302-.061-.411-.17-.11-.11-.17-.259-.17-.413V17.763c0-3.415-1.747-4.098-3.238-4.098-1.405 0-3.918.94-3.918 4.782v11.028c0 .154-.061.303-.17.412-.11.11-.258.171-.412.171h-4.287c-.322 0-.582-.261-.582-.583V9.429c0-.154.061-.303.17-.412.11-.11.258-.171.412-.171h4.276c.159-.002.311.061.422.175.11.114.169.268.162.427-.053.956-.235 1.901-.54 2.809-.029.074.001.158.07.198.07.039.157.021.206-.042.83-1.076 2.642-3.87 6.065-3.87zm54.57 4.207c2.7-4.064 5.852-4.38 8.648-3.957.278.05.48.293.477.577v4.636c0 .182-.085.354-.231.464-.146.11-.334.144-.509.093-.798-.23-1.624-.345-2.454-.343-3.152 0-5.665 1.964-5.665 6.233v9.022c0 .322-.26.583-.582.583h-4.287c-.321 0-.582-.261-.582-.583V9.429c0-.322.26-.583.582-.583h4.287c.322 0 .582.261.582.583v.366c-.056.956-.24 1.9-.547 2.807-.027.075.006.158.077.195.07.037.157.017.204-.047zM63.476 0c.322 0 .582.261.583.583l.002 5.89c.005 1.606-.35 3.193-1.04 4.642-.033.07-.01.154.053.2.063.044.149.037.204-.017 1.897-1.834 4.45-2.827 7.084-2.756 6.964.029 10.043 5.743 10.043 10.588 0 5.79-3.76 10.7-10.133 10.906-3.6.008-5.32-1.384-5.937-2.042-.046-.047-.116-.062-.177-.037-.06.025-.1.085-.1.15v1.368c0 .154-.06.303-.17.412-.11.11-.257.171-.412.171h-4.294c-.155 0-.303-.061-.412-.17-.11-.11-.17-.259-.17-.413V.584c0-.155.06-.304.17-.413.109-.11.257-.171.411-.171zm62.007 8.833c-4.218 0-7.636 3.638-7.636 8.126 0 4.487 3.418 8.125 7.636 8.125 1.064 0 2.115-.237 3.078-.692l-3.783-3.754c-.132-.13-.206-.308-.207-.494-.001-.186.072-.365.202-.497l3.062-3.1c.272-.275.714-.277.99-.006l3.667 3.64c.416-1.023.629-2.118.627-3.222 0-4.488-3.419-8.126-7.636-8.126zm-55.982 4.49c-3.015 0-5.46 2.6-5.46 5.809 0 3.208 2.445 5.81 5.46 5.81s5.46-2.602 5.46-5.81c0-3.209-2.445-5.81-5.46-5.81zM108.259 0c.367 0 .664.298.664.666v4.468c.001.155-.064.304-.178.408-.114.105-.267.157-.421.142-2.632-.323-4.683-2.44-4.929-5.086-.013-.154.039-.307.143-.42.105-.114.252-.179.406-.178z" transform="translate(-80 -46) translate(80 -123.853) translate(0 155.853) translate(0 14)"/>
                    </g>
                </g>
            </g>
        </g>
    </g>
</svg>
