<?xml version="1.0" encoding="utf-8"?>
<!-- Generator: Adobe Illustrator 26.5.0, SVG Export Plug-In . SVG Version: 6.00 Build 0)  -->
<svg version="1.1" id="Layer_1" xmlns="http://www.w3.org/2000/svg" xmlns:xlink="http://www.w3.org/1999/xlink" x="0px" y="0px"
	 viewBox="0 0 402.2 137.1" style="enable-background:new 0 0 402.2 137.1;" xml:space="preserve">
<style type="text/css">
	.st0{fill:#0E0E0E;}
	.st1{fill:#F8991D;}
</style>
<path class="st0" d="M13.7,91.9c1,16.8,15.7,31.6,33.3,31.6c19.8,0,30.4-15.8,30.4-15.8l8.8,8.9c0,0-13.7,19.8-39.2,19.8
	c-25.5,0-47-21.7-47-49.4s21.6-49.4,46-49.4c25.5,0,45.1,19.8,45.1,47.5c0,2.4-0.3,4.8-1,7.1L13.7,91.9z M13.7,80.1h63.7
	c-2-16.8-14.7-29.6-31.3-29.6C29.4,50.4,15.7,64.2,13.7,80.1z"/>
<path class="st0" d="M129.3,53.4c3.4-4.9,8-8.9,13.3-11.6c5.3-2.8,11.2-4.2,17.1-4.2c22.5,0,38.2,15.8,38.2,40.5v56.3h-13.7V78.1
	c0-16.8-10.8-27.7-25.5-27.7c-16.7,0-29.4,12.8-29.4,31.6v52.4h-13.7V39.5h13.7V53.4z"/>
<path class="st0" d="M276.6,60.6c-2.5-3.1-5.6-5.6-9.2-7.3c-3.6-1.7-7.5-2.6-11.4-2.6c-10.8,0-17.6,6.9-17.6,13.8
	c0,20.8,50.9,9.9,50.9,43.5c0,15.8-12.7,28.7-34.3,28.7c-23.5,0-34.3-16.8-34.3-16.8l9.8-9.9c0,0,8.8,13.8,24.5,13.8
	c13.7,0,20.6-6.9,20.6-15.8c0-21.7-50.9-10.9-50.9-43.5c0-13.8,12.7-26.7,31.3-26.7c5.7,0,11.3,1.1,16.5,3.3
	c5.2,2.2,9.9,5.5,13.9,9.6L276.6,60.6z"/>
<path class="st0" d="M354.6,37.6c26.5,0,48,21.7,48,49.4c0,27.7-21.6,49.4-48,49.4s-48-21.7-48-49.4
	C306.6,59.3,328.2,37.6,354.6,37.6z M354.6,50.4c-18.6,0-34.3,15.8-34.3,36.6c0,20.6,15.7,36.6,34.3,36.6
	c18.6,0,34.3-15.8,34.3-36.6C388.9,66.2,373.2,50.4,354.6,50.4z"/>
<path class="st1" d="M320.2,0H389v12.2h-68.8V0z"/>
</svg>
