<?xml version="1.0" encoding="utf-8"?>
<!-- Generator: Adobe Illustrator 26.5.0, SVG Export Plug-In . SVG Version: 6.00 Build 0)  -->
<svg version="1.1" id="Layer_1" xmlns="http://www.w3.org/2000/svg" xmlns:xlink="http://www.w3.org/1999/xlink" x="0px" y="0px"
	 viewBox="0 0 143 30" style="enable-background:new 0 0 143 30;" xml:space="preserve">
<style type="text/css">
	.st0{fill:#00BBFF;}
	.st1{fill:#0098FF;}
	.st2{fill:#0072CE;}
	.st3{fill:#333333;}
</style>
<g transform="translate(-1)">
	<polygon class="st0" points="17.4,23.1 8,18.4 1.2,21.8 17.4,29.9 33.7,21.8 26.9,18.4 	"/>
	<polygon class="st1" points="17.4,16.3 8,11.6 1.2,15 8,18.4 17.4,23.1 26.9,18.4 33.7,15 26.9,11.6 	"/>
	<polygon class="st2" points="26.9,11.6 33.7,8.2 17.4,0.1 1.2,8.2 8,11.6 17.4,16.3 	"/>
	<path class="st3" d="M54.4,17.8c0-0.1-0.1-0.3-0.2-0.3c0,0,0,0,0,0h-1.9c-0.3,0-0.6-0.3-0.6-0.6v-2.7c0-0.3,0.3-0.6,0.6-0.6h5.5
		c0.3,0,0.6,0.3,0.6,0.6V19c0,3.4-2.8,6.1-6.7,6.1s-6.3-2.8-6.7-6.2c-0.3-2.6-0.3-5.2,0-7.8c0.4-3.4,2.8-6.2,6.7-6.2
		s6.7,2.7,6.7,6.4v0c0,0.3-0.3,0.5-0.6,0.6h-2.8c-0.3,0-0.6-0.3-0.6-0.6v0c0-1.1-1-2.4-2.7-2.4c-1.7,0-2.6,1-2.7,2.2
		c-0.3,2.6-0.3,5.2,0,7.8c0.1,1.2,1,2.2,2.7,2.2c1.7,0,2.8-0.9,2.8-2.2L54.4,17.8L54.4,17.8z M65.2,20.6c0,0.1,0.1,0.3,0.2,0.3
		c0,0,0,0,0,0h6.6c0.3,0,0.6,0.3,0.6,0.6v2.8c0,0.3-0.3,0.6-0.6,0.6H61.8c-0.3,0-0.6-0.3-0.6-0.6V5.8c0-0.3,0.3-0.6,0.6-0.6H72
		c0.3,0,0.6,0.3,0.6,0.6v2.8c0,0.3-0.3,0.6-0.6,0.6h-6.5c-0.1,0-0.3,0.1-0.3,0.2c0,0,0,0,0,0v3.4c0,0.1,0.1,0.3,0.2,0.3c0,0,0,0,0,0
		h6.3c0.3,0,0.6,0.3,0.6,0.6v2.8c0,0.3-0.3,0.6-0.6,0.6h-6.3c-0.1,0-0.3,0.1-0.3,0.2c0,0,0,0,0,0C65.2,17.2,65.2,20.6,65.2,20.6z
		 M88.6,11.1c0.3,2.6,0.3,5.2,0,7.8c-0.4,3.4-2.8,6.2-6.7,6.2s-6.3-2.8-6.7-6.2c-0.3-2.6-0.3-5.2,0-7.8c0.4-3.4,2.8-6.2,6.7-6.2
		S88.2,7.7,88.6,11.1z M84.6,18.9c0.3-2.6,0.3-5.2,0-7.8c-0.1-1.2-1-2.2-2.7-2.2s-2.6,1-2.7,2.2c-0.3,2.6-0.3,5.2,0,7.8
		c0.1,1.2,1,2.2,2.7,2.2S84.5,20.2,84.6,18.9z M97.5,5.2c3.7,0,5.8,2.6,6.3,5.6c0.3,2.2,0.3,6.1,0,8.4c-0.5,3.6-2.9,5.6-6.3,5.6
		h-5.1c-0.3,0-0.6-0.3-0.6-0.6V5.8c0-0.3,0.3-0.6,0.6-0.6C92.5,5.2,97.5,5.2,97.5,5.2z M94,7c-0.1,0-0.3,0.1-0.3,0.2c0,0,0,0,0,0
		v15.5c0,0.1,0.1,0.3,0.2,0.3c0,0,0,0,0,0h3.5c3,0,4.1-2.2,4.4-3.8c0.3-2.8,0.3-5.6,0-8.4c-0.3-2-1.7-3.8-4.4-3.8L94,7
		C94,7,94,7,94,7z M115.3,19.6c-0.1-0.2-0.3-0.4-0.5-0.4H109c-0.2,0-0.5,0.2-0.5,0.4l-1.4,4.7c-0.1,0.2-0.3,0.4-0.5,0.4h-0.7
		c-0.4,0-0.6-0.3-0.6-0.6l5.3-18.6c0.1-0.2,0.3-0.4,0.5-0.4h1.4c0.3,0,0.5,0.2,0.5,0.4l5.4,18.6c0.1,0.3-0.1,0.6-0.6,0.6h-0.7
		c-0.3,0-0.5-0.2-0.5-0.4L115.3,19.6z M114.6,17.2L112,7.7c0-0.1-0.1-0.2-0.1-0.2h-0.1c-0.1,0-0.1,0.1-0.1,0.2l-2.5,9.5
		c-0.1,0.1,0,0.2,0.1,0.3c0,0,0.1,0,0.1,0h4.9c0.1,0,0.2-0.1,0.2-0.2C114.6,17.3,114.6,17.3,114.6,17.2L114.6,17.2z M125.4,7.3v17
		c0,0.3-0.3,0.6-0.6,0.6h-0.7c-0.3,0-0.6-0.3-0.6-0.6v-17c0-0.1-0.1-0.3-0.2-0.3c0,0,0,0,0,0h-4.1c-0.3,0-0.6-0.3-0.6-0.6V5.8
		c0-0.3,0.3-0.6,0.6-0.6h10.7c0.3,0,0.6,0.3,0.6,0.6v0.7c0,0.3-0.3,0.6-0.6,0.6h-4.1C125.6,7,125.4,7.1,125.4,7.3
		C125.4,7.2,125.4,7.3,125.4,7.3L125.4,7.3z M140.6,19.6c-0.1-0.2-0.3-0.4-0.5-0.4h-5.8c-0.2,0-0.5,0.2-0.5,0.4l-1.4,4.7
		c-0.1,0.2-0.3,0.4-0.5,0.4h-0.7c-0.4,0-0.6-0.3-0.6-0.6l5.4-18.6c0.1-0.2,0.3-0.4,0.5-0.4h1.4c0.3,0,0.5,0.2,0.5,0.4l5.4,18.6
		c0.1,0.3-0.1,0.6-0.6,0.6h-0.7c-0.3,0-0.5-0.2-0.5-0.4L140.6,19.6z M139.8,17.2l-2.5-9.5c0-0.1-0.1-0.2-0.1-0.2h-0.1
		c-0.1,0-0.1,0.1-0.1,0.2l-2.5,9.5c-0.1,0.1,0,0.2,0.1,0.3c0,0,0.1,0,0.1,0h4.9c0.1,0,0.2-0.1,0.2-0.2
		C139.9,17.3,139.9,17.3,139.8,17.2L139.8,17.2z"/>
</g>
</svg>
