<?xml version="1.0" encoding="utf-8"?>
<!-- Generator: Adobe Illustrator 26.5.0, SVG Export Plug-In . SVG Version: 6.00 Build 0)  -->
<svg version="1.1" id="Layer_1" xmlns="http://www.w3.org/2000/svg" xmlns:xlink="http://www.w3.org/1999/xlink" x="0px" y="0px"
	 viewBox="0 0 195.6 59.9" style="enable-background:new 0 0 195.6 59.9;" xml:space="preserve">
<style type="text/css">
	.st0{fill-rule:evenodd;clip-rule:evenodd;fill:#C30000;}
</style>
<path class="st0" d="M193.5,1.4h-19.9c0,0-1.4,0-1.9,1.2l-11,33.8l-11-33.8c-0.5-1.2-1.9-1.2-1.9-1.2h-38.3c-0.8,0-1.5,0.7-1.5,1.5
	v11.5c0-9.1-9.7-13-15.3-13C80,1.4,71.5,9.8,68.9,22.5C68.8,14.1,68.1,11,65.8,8c-1-1.5-2.5-2.8-4.2-3.8c-3.4-2-6.4-2.7-12.9-2.7H41
	c0,0-1.4,0-1.9,1.2l-7,17.3V3c0-0.8-0.7-1.5-1.5-1.5H12.9c0,0-1.4,0-1.9,1.2l-7.2,18c0,0-0.7,1.8,0.9,1.8h6.8v34.2
	c0,0.9,0.7,1.5,1.5,1.5h17.6c0.8,0,1.5-0.7,1.5-1.5V22.5H39c3.9,0,4.8,0.1,6.3,0.8c0.9,0.4,1.8,1,2.2,1.9c0.9,1.7,1.2,3.8,1.2,10
	v21.5c0,0.9,0.7,1.5,1.5,1.5H67c0,0,1.9,0,2.6-1.9l3.7-9.2c5,7,13.1,11.1,23.3,11.1h2.2c0,0,1.9,0,2.7-1.9l6.5-16.1v16.5
	c0,0.9,0.7,1.5,1.5,1.5h17.2c0,0,1.9,0,2.7-1.9c0,0,6.9-17.1,6.9-17.2l0,0c0.3-1.4-1.5-1.4-1.5-1.4h-6.1V8.4L148,56.3
	c0.8,1.9,2.6,1.9,2.6,1.9h20.3c0,0,1.9,0,2.7-1.9l21.4-53c0.7-1.8-1.4-1.8-1.4-1.8l0,0L193.5,1.4z M107.9,37.6H96.4
	c-4.6,0-8.3-3.7-8.3-8.3s3.7-8.3,8.3-8.3h3.2c4.6,0,8.3,3.7,8.3,8.3V37.6L107.9,37.6z"/>
</svg>
