<?xml version="1.0" encoding="utf-8"?>
<!-- Generator: Adobe Illustrator 26.5.0, SVG Export Plug-In . SVG Version: 6.00 Build 0)  -->
<svg version="1.1" id="Layer_1" xmlns="http://www.w3.org/2000/svg" xmlns:xlink="http://www.w3.org/1999/xlink" x="0px" y="0px"
	 viewBox="0 0 1157 475" style="enable-background:new 0 0 1157 475;" xml:space="preserve">
<style type="text/css">
	.st0{fill:none;}
</style>
<rect y="0" class="st0" width="1157" height="475"/>
<path d="M181.3,2.8v224.3L67.7,2.8H0v248h37.2V23l115.1,227.8h66.1V2.8H181.3z"/>
<path d="M751,230.6L671.9,2.8H630l89.4,248h63.2l90.1-248h-41.2L751,230.6z"/>
<path d="M1002.9,2.8l-93.8,248h39.3l85.4-229.9l83.8,229.9h39.4l-91.9-248H1002.9z"/>
<path d="M506.6,17.1C486.6,5.7,464.9,0,441.4,0h-0.1c-23.7,0-45.6,5.7-65.6,17.1c-20,11.3-35.7,26.7-47.3,46.2
	c-11.5,19.5-17.3,40.7-17.3,63.6c0,0,0,0,0,0.1H349c0,0,0,0,0-0.1c0-16.8,4-32.1,12.1-46.2c8.1-14.1,19.1-25.3,33.3-33.6
	c14.1-8.3,29.7-12.6,46.9-12.6c17.2,0,32.7,4.2,46.9,12.6c14.1,8.4,25.1,19.6,33.3,33.6c8.1,14.1,12.1,29.5,12.1,46.2c0,0,0,0,0,0.1
	h37.9c0,0,0,0,0-0.1c0-22.9-5.8-44.1-17.5-63.6C542.5,43.8,526.7,28.4,506.6,17.1"/>
<path d="M492,400.4c-3.8-2.2-8-3.2-12.8-3.2c-5.3,0-9.7,1.3-13.2,3.8c-3.7,2.5-6.1,5.9-7.5,10v-13.2h-8.9v76.3h8.9v-37.8
	c1.4,4.1,3.8,7.5,7.5,10s8.1,3.8,13.2,3.8c4.8,0,9-1,12.8-3.2c3.8-2.2,6.7-5.2,8.7-9.2c2.2-4,3.2-8.7,3.2-14.1s-1-10.1-3.2-14.1
	C498.6,405.7,495.7,402.6,492,400.4z M490.1,437.7c-3.3,3.4-7.7,5.1-13.2,5.1c-3.5,0-6.6-0.7-9.4-2.3c-2.8-1.6-5-3.7-6.6-6.7
	c-1.6-2.9-2.3-6.2-2.3-9.9c0-3.7,0.8-7.1,2.3-10c1.6-2.9,3.8-5.1,6.6-6.7c2.8-1.5,5.9-2.3,9.4-2.3c5.5,0,9.9,1.7,13.2,5.1
	c3.3,3.4,5,8,5,13.9C495,429.7,493.4,434.3,490.1,437.7"/>
<path d="M295.9,408.3v-10.5H287v51.7h8.9v-27.3c0-5.7,1.6-9.8,4.8-12.3c3.2-2.5,7.3-3.7,12.3-3.7h2.7v-9.4c-4.7,0-8.7,1-12.1,3
	C300.3,401.8,297.6,404.6,295.9,408.3"/>
<path d="M426.5,425.3c0,5.8-1.5,10.3-4.4,13.3c-2.9,3.1-6.9,4.6-11.7,4.6s-8.4-1.4-11.2-4.2c-2.7-2.8-4.1-6.7-4.1-11.9v-29.3h-8.9
	V428c0,7.2,1.9,12.7,5.8,16.7c3.8,3.8,8.9,5.8,15.1,5.8c4.6,0,8.7-1.1,12.2-3.4c3.5-2.2,5.9-5.4,7.3-9.6v12.2h8.9v-51.7h-8.9
	L426.5,425.3L426.5,425.3z"/>
<path d="M362.8,400.4c-4-2.2-8.7-3.2-13.9-3.2c-5.2,0-9.8,1-13.9,3.2c-4,2.2-7.3,5.2-9.7,9.3c-2.3,4-3.6,8.7-3.6,14.1
	c0,5.4,1.2,10.1,3.6,14.1c2.3,4,5.5,7,9.7,9.2c4,2.2,8.7,3.2,13.9,3.2c5.2,0,9.8-1,13.9-3.2c4-2.2,7.3-5.2,9.6-9.2
	c2.3-4,3.5-8.7,3.5-14.1s-1.1-10.1-3.5-14.1C370.1,405.7,366.9,402.6,362.8,400.4z M364.4,434.3c-1.7,2.9-3.8,5-6.6,6.4
	s-5.6,2.1-8.8,2.1c-3.2,0-6.2-0.7-8.8-2.1c-2.7-1.4-4.9-3.5-6.6-6.4c-1.7-2.8-2.5-6.4-2.5-10.5c0-4.1,0.8-7.8,2.5-10.6
	c1.7-2.9,3.8-5,6.6-6.4c2.7-1.4,5.6-2.1,8.8-2.1c3.2,0,6.2,0.7,8.8,2.1c2.7,1.4,4.9,3.5,6.6,6.4c1.7,2.8,2.5,6.4,2.5,10.6
	S366.1,431.5,364.4,434.3z"/>
<path d="M263.9,411c-1.4-4.2-3.9-7.6-7.6-10.1c-3.7-2.5-8.1-3.7-13.2-3.7c-4.8,0-9,1-12.8,3.2c-3.8,2.2-6.7,5.2-8.7,9.3
	c-2.2,4-3.2,8.7-3.2,14.1c0,5.4,1,10.1,3.2,14.1c2.2,4,5.1,7,8.7,9.2c3.8,2.2,8,3.2,12.8,3.2c5.3,0,9.7-1.2,13.2-3.7
	c3.7-2.5,6.2-5.9,7.6-10.1v14.1c0,5.3-1.6,9.5-4.8,12.5c-3.2,3-7.1,4.5-12,4.5c-4.6,0-8.3-1-11.2-3c-2.9-2-4.9-4.7-5.9-8.2h-8.8
	c1.2,5.7,4.1,10.3,8.7,13.6c4.6,3.4,10.5,5.1,17.7,5.1c5,0,9.4-1,13.2-3.1c3.8-2.1,6.8-5,8.8-8.7c2.1-3.7,3.1-8,3.1-12.7v-52.6h-8.9
	V411L263.9,411z M261.6,433.7c-1.6,2.9-3.8,5.1-6.5,6.7c-2.8,1.6-5.9,2.3-9.5,2.3c-5.4,0-9.9-1.7-13.1-5.1c-3.3-3.4-5-8-5-13.9
	c0-5.9,1.7-10.6,5-13.9c3.3-3.4,7.7-5.1,13.1-5.1c3.6,0,6.7,0.8,9.5,2.3c2.8,1.5,5,3.7,6.5,6.7c1.6,2.9,2.3,6.2,2.3,10
	S263.2,431,261.6,433.7"/>
<path d="M329.7,353.4c2.3-4,3.5-8.7,3.5-14.1s-1.1-10.1-3.5-14.1c-2.3-4-5.5-7.1-9.6-9.3c-4-2.2-8.7-3.2-13.9-3.2
	c-5.2,0-9.8,1-13.9,3.2c-4,2.2-7.3,5.2-9.7,9.3c-2.3,4-3.6,8.7-3.6,14.1c0,5.4,1.1,10.1,3.6,14.1c2.3,4,5.5,7,9.7,9.2
	c4,2.2,8.7,3.2,13.9,3.2c5.2,0,9.8-1,13.9-3.2C324.2,360.4,327.5,357.4,329.7,353.4z M321.6,349.8c-1.7,2.9-3.8,5-6.6,6.4
	s-5.6,2.1-8.8,2.1s-6.2-0.7-8.8-2.1c-2.7-1.4-4.9-3.5-6.6-6.4c-1.7-2.8-2.5-6.4-2.5-10.5c0-4.1,0.8-7.8,2.5-10.6
	c1.7-2.8,3.8-5,6.6-6.4c2.7-1.4,5.6-2.1,8.8-2.1s6.2,0.7,8.8,2.1c2.7,1.4,4.9,3.5,6.6,6.4c1.7,2.9,2.5,6.4,2.5,10.6
	S323.3,347,321.6,349.8z"/>
<path d="M231.2,362.6c3.9,2.2,8.5,3.2,13.7,3.2c6.8,0,12.6-1.8,17.1-5.2c4.5-3.5,7.3-8.2,8.4-14.1h-9.4c-0.7,3.7-2.4,6.7-5.3,8.8
	c-2.9,2.2-6.5,3.2-10.8,3.2c-3.1,0-6-0.7-8.5-2.1s-4.7-3.5-6.2-6.4c-1.6-2.8-2.3-6.4-2.3-10.6s0.8-7.8,2.3-10.6
	c1.6-2.8,3.7-5,6.2-6.4c2.5-1.4,5.4-2.1,8.5-2.1c4.3,0,7.9,1,10.8,3.2c2.9,2.1,4.7,5,5.3,8.7h9.4c-1-5.9-3.8-10.6-8.4-14.1
	s-10.2-5.2-17.1-5.2c-5.2,0-9.8,1-13.7,3.2s-7.1,5.2-9.4,9.3c-2.3,4-3.4,8.7-3.4,14.1c0,5.4,1.1,10.1,3.4,14.1
	C224.1,357.5,227.2,360.5,231.2,362.6"/>
<path d="M394.1,365.2v-30.1c0-7.3-2-12.8-5.8-16.8c-3.8-3.8-8.9-5.8-15.2-5.8c-4.6,0-8.6,1.1-12.1,3.4c-3.5,2.2-5.9,5.5-7.3,9.7
	v-12.3h-8.9v51.7h8.9v-27.5c0-5.8,1.5-10.3,4.4-13.3c2.9-3.1,6.9-4.6,11.7-4.6s8.4,1.4,11.2,4.1c2.7,2.8,4.1,6.7,4.1,11.9v29.3
	L394.1,365.2L394.1,365.2z"/>
<path d="M631.6,312.5c-4.6,0-8.6,1.1-12.1,3.4c-3.5,2.2-5.9,5.5-7.3,9.7v-12.3h-8.9v51.7h8.9v-27.5c0-5.8,1.5-10.3,4.4-13.3
	c2.9-3.1,6.8-4.6,11.7-4.6c4.9,0,8.4,1.4,11.2,4.1c2.7,2.7,4.1,6.7,4.1,11.9v29.3h8.9V335c0-7.3-2-12.8-5.8-16.8
	C642.8,314.4,637.8,312.5,631.6,312.5"/>
<path d="M497.2,340.9c0,5.8-1.5,10.3-4.4,13.3c-2.9,3.1-6.9,4.6-11.7,4.6s-8.4-1.4-11.2-4.2c-2.7-2.8-4.1-6.7-4.1-11.9v-29.3h-8.9
	v30.2c0,7.2,2,12.7,5.8,16.7c3.8,3.8,8.9,5.8,15.1,5.8c4.6,0,8.7-1.1,12.2-3.4c3.5-2.2,5.9-5.4,7.3-9.6v12.2h8.9v-51.7h-8.9
	L497.2,340.9L497.2,340.9z"/>
<path d="M709.1,326.6c-1.4-4.2-3.9-7.6-7.6-10.1c-3.7-2.5-8.1-3.7-13.2-3.7c-4.8,0-9,1-12.8,3.2s-6.7,5.2-8.7,9.3
	c-2.2,4-3.2,8.7-3.2,14.1c0,5.4,1,10.1,3.2,14.1c2.2,4,5.1,7,8.7,9.2c3.8,2.2,8,3.2,12.8,3.2c5.3,0,9.7-1.2,13.2-3.7
	c3.7-2.5,6.2-5.9,7.6-10.1v14.1c0,5.3-1.6,9.5-4.8,12.5c-3.2,3-7.1,4.5-12,4.5c-4.6,0-8.3-1-11.2-3c-2.9-2-4.9-4.7-5.9-8.2h-8.8
	c1.2,5.7,4.1,10.3,8.7,13.6c4.6,3.4,10.5,5.1,17.7,5.1c5.1,0,9.4-1,13.2-3.1c3.8-2.1,6.8-5,8.8-8.7c2.1-3.7,3.1-8,3.1-12.7v-52.6
	h-8.9V326.6L709.1,326.6z M706.7,349.3c-1.6,2.9-3.8,5.1-6.5,6.7c-2.8,1.6-5.9,2.3-9.5,2.3c-5.4,0-9.9-1.7-13.1-5.1
	c-3.3-3.4-5-8-5-13.9c0-5.9,1.7-10.6,5-13.9c3.3-3.4,7.7-5.1,13.1-5.1c3.6,0,6.7,0.8,9.5,2.3c2.8,1.5,5,3.7,6.5,6.7
	c1.6,2.9,2.3,6.2,2.3,10C709.1,343.3,708.3,346.6,706.7,349.3"/>
<path d="M589,313.4h-8.9v51.7h8.9V313.4z"/>
<path d="M584.6,293c-1.8,0-3.3,0.5-4.4,1.5c-1.1,0.9-1.7,2.2-1.7,3.8c0,1.6,0.6,2.8,1.7,3.8c1.1,0.9,2.5,1.5,4.4,1.5
	s3.3-0.5,4.4-1.5c1.1-0.9,1.7-2.2,1.7-3.8c0-1.6-0.6-2.8-1.7-3.8C587.8,293.5,586.4,293,584.6,293z"/>
<path d="M529.3,295.4h-8.9v69.8h8.9V295.4z"/>
<path d="M557.2,355.7c-1.3-1.2-1.9-3.5-1.9-6.8v-28.1h13.9v-7.4h-13.9v-12.9h-9v12.9h-8.1v7.4h8.1v27.9c0,5.9,1.3,10.1,4,12.6
	s6.8,3.7,12.3,3.7h6.7v-7.5h-5.4C560.7,357.6,558.5,357,557.2,355.7"/>
<path d="M437.5,339.1c-2.4-0.9-5.6-1.8-9.7-2.7c-3.1-0.7-5.6-1.3-7.4-2c-1.8-0.6-3.3-1.5-4.5-2.6c-1.2-1.1-1.8-2.7-1.8-4.6
	c0-2.5,0.9-4.5,2.7-6c1.8-1.5,4.3-2.2,7.5-2.2c3.8,0,6.8,1,9.1,3c2.3,2,3.6,4.5,3.9,7.6h8.5c-0.8-5.2-3-9.3-6.7-12.3
	c-3.7-3.1-8.5-4.6-14.6-4.6c-5.7,0-10.2,1.3-13.6,4c-3.3,2.7-5,6.2-5,10.5c0,3.3,0.8,5.9,2.5,7.8s3.7,3.3,6.1,4.2
	c2.3,0.8,5.5,1.8,9.6,2.6c3.2,0.7,5.7,1.3,7.5,2c1.8,0.7,3.4,1.5,4.6,2.7c1.2,1.2,1.9,2.8,1.9,4.8c0,2.4-0.8,4.4-2.6,5.9
	c-1.7,1.5-4.1,2.2-7.2,2.2c-4.1,0-7.4-0.9-9.9-2.9c-2.5-2-3.9-4.5-4.2-7.7h-8.6c0.8,5.2,3.1,9.4,7.1,12.4c4,3,9.3,4.4,15.7,4.4
	c5.4,0,9.9-1.3,13.1-3.9c3.3-2.6,5-6.1,5-10.3c0-3.4-0.8-6.1-2.6-8.2c-1.7-2-3.8-3.5-6.3-4.4"/>
</svg>
