<svg xmlns="http://www.w3.org/2000/svg" viewBox="0 0 336.47 193.43"><defs><style>.cls-1{fill:#7bc144;}.cls-2{fill:#bfc0c4;}.cls-3{fill:#e32d22;}</style></defs><title>PostBring_cobRGBpos</title><path class="cls-1" d="M264.37,194.46c-2.6,0-5.45.3-7.27,2.16v-9.48h-5.55v31.69h5v-1.92a10,10,0,0,0,6.93,2.31c9.58,0,10.22-6.48,10.22-12.33C273.71,199.62,272.58,194.46,264.37,194.46Zm-1.23,19.75c-4.76,0-6.14-1.33-6.14-7.32s1.38-7.32,6.14-7.32c4.13,0,5,1.72,5,7.32S267.27,214.21,263.14,214.21ZM288,194.46A8.61,8.61,0,0,0,281.4,197v-2.14h-4.82v24h5.55V208.41c0-1.86-.09-4.52.54-6.24a4.31,4.31,0,0,1,4.33-2.85c2.31,0,3.22.5,3.22,2.71h5.52C295.74,196.77,293.14,194.46,288,194.46Zm31.32,0a10,10,0,0,0-6.93,2.31v-1.89h-4.81v24h5.55V207.68c0-4.18-.44-8.31,5.55-8.31,4.81,0,4.37,2.21,4.37,6.83v12.63h5.55V205.76C328.58,200.55,329,194.46,319.3,194.46Zm29.28.42v1.89c-1.86-1.67-4.91-2.31-7.46-2.31-8.26,0-9.58,5-9.58,12.23,0,5.75.54,12.14,9.63,12.14,2.3,0,5.15-.54,6.87-2.12a41.86,41.86,0,0,1-.09,4.19c-.3,2.26-2.61,3.24-5.8,3.24s-4.08-.88-4.08-2.6h-6c0,6.1,5.45,7.32,10.26,7.32,4.43,0,10.23-1.18,11.11-6.88a46.43,46.43,0,0,0,.2-5.71V194.88Zm-6.53,18.94c-4.13,0-5-1.53-5-7.13s.83-7.32,5-7.32c4.76,0,6,1.33,6,7.32S346.81,213.82,342.05,213.82Zm-43.64,5H304v-24h-5.55Zm0-26.13H304v-5.55h-5.55Z" transform="translate(-35.5 -35.43)"/><path class="cls-2" d="M306.73,109.13a35.42,35.42,0,0,1-70.62,0h-5.72a70.85,70.85,0,0,0,141.59,0Z" transform="translate(-35.5 -35.43)"/><path class="cls-1" d="M236.11,103.46a35.42,35.42,0,0,1,70.62,0H372a70.85,70.85,0,0,0-141.59,0Z" transform="translate(-35.5 -35.43)"/><path class="cls-3" d="M50.75,194.44a11.17,11.17,0,0,0-7.47,2.32v-1.88h-5v31.7h5.55v-9.47c1.62,1.72,3.69,2.11,6.29,2.11,9.29,0,10.32-6.54,10.32-12.34C60.43,199.26,59.3,194.54,50.75,194.44Zm-.88,19.87c-4.77,0-6.1-1.43-6.1-7.43s1.33-7.52,6.1-7.52c4.13,0,5,1.92,5,7.52S54,214.31,49.87,214.31Zm24-19.87c-3.88,0-6.78.69-8.85,2.71s-2.55,5.11-2.55,9.68.44,7.67,2.55,9.68,5,2.71,8.85,2.71,6.78-.69,8.85-2.71,2.55-5.1,2.55-9.68-.44-7.67-2.55-9.68S77.68,194.44,73.85,194.44Zm0,19.87c-5.36,0-5.85-2.07-5.85-7.48s.49-7.47,5.85-7.47,5.85,2.06,5.85,7.47S79.21,214.31,73.85,214.31ZM140,194.44c-9.64,0-11,5.51-11,12.69,0,7,1.53,12.09,11.16,12.09,4.53,0,10.52-1.13,10.52-7.57h-5.37c0,2.7-2.94,3-4.95,3-4.77,0-5.8-1.62-5.8-5.7H151C151,200.59,150.5,194.44,140,194.44Zm-5.36,10c0-3.19.49-5.4,5.36-5.4,5.16,0,5.45,2,5.45,5.4Zm30.37-10a9.94,9.94,0,0,0-6.93,2.32v-1.88h-4.82v24h5.55V207.67c0-4.18-.44-8.31,5.56-8.31,4.81,0,4.37,2.21,4.37,6.83v12.64h5.56V205.75C174.33,200.54,174.72,194.44,165,194.44ZM119.82,214.7c-2.7,0-3-1.42-3-3.25V199.68h10.92v-4.8H116.79v-7.75h-5.55v7.75H108v4.8h3.24v11.77c0,5.36,3.19,7.77,8.75,7.77,4.76,0,7.79-1.82,7.79-7.57h-5C122.68,213.18,122.33,214.75,119.82,214.7ZM96.34,204.33c-2.41-.15-4-.15-3.88-2.86.05-1.57.45-2.7,5.22-2.55,3.25.1,4.26.78,4.26,3.1h5.12c0-5.71-3.48-7.48-9.43-7.58-6.39-.09-10.63,1.23-10.73,7.18-.14,7.38,5.36,7.18,10.72,7.47,2.75.15,4.42.2,4.33,3,0,1.72-.62,2.8-5.38,2.66-3.94-.1-4.66-1.09-4.66-3.15H86.8c0,5.9,3.77,7.47,9.81,7.57,6.44.1,10.74-1.43,10.84-7.32C107.6,204.23,101.85,204.67,96.34,204.33Z" transform="translate(-35.5 -35.43)"/><path class="cls-3" d="M171.37,109.13a35.42,35.42,0,0,1-70.62,0H35.5a70.85,70.85,0,0,0,141.59,0Z" transform="translate(-35.5 -35.43)"/><path class="cls-2" d="M100.75,103.46a35.42,35.42,0,0,1,70.62,0h5.72a70.85,70.85,0,0,0-141.59,0Z" transform="translate(-35.5 -35.43)"/></svg>