<svg width="202" height="31" viewBox="0 0 202 31" fill="none" xmlns="http://www.w3.org/2000/svg">
<g clip-path="url(#clip0_300_34782)">
<path fill-rule="evenodd" clip-rule="evenodd" d="M50.8222 25.5381C49.1381 25.5381 47.5406 25.2742 46.0302 24.7414C44.5192 24.206 43.1819 23.4029 42.014 22.3418L44.9118 18.7957C46.7948 20.3283 48.827 21.0974 51.0148 21.0974C51.7092 21.0974 52.2423 20.9885 52.608 20.7586C52.9774 20.5268 53.1581 20.2034 53.1581 19.7852V19.7314C53.1581 19.5316 53.1123 19.3516 53.0251 19.196C52.9366 19.0449 52.766 18.895 52.5302 18.7432C52.2856 18.6011 51.9644 18.4608 51.5618 18.3257C51.1547 18.1854 50.6378 18.0452 49.9874 17.8979C48.9857 17.6603 48.0593 17.4003 47.2018 17.1172C46.3369 16.8348 45.5905 16.4729 44.9551 16.024C44.3203 15.5751 43.8185 15.016 43.4478 14.3531C43.0853 13.689 42.9015 12.8622 42.9015 11.8741V11.8216C42.9015 10.9269 43.0709 10.1052 43.3996 9.35721C43.7282 8.61048 44.2162 7.96237 44.8453 7.41481C45.4832 6.86789 46.2485 6.44137 47.1435 6.14357C48.0405 5.84258 49.0497 5.6908 50.1806 5.6908C51.7907 5.6908 53.2233 5.90598 54.4878 6.34018C55.7517 6.77055 56.8895 7.41097 57.9125 8.25632L55.3082 12.0252C54.4502 11.4021 53.5639 10.9307 52.6625 10.6144C51.7606 10.2929 50.8825 10.1353 50.0432 10.1353C49.4191 10.1353 48.9456 10.2519 48.6357 10.4895C48.3221 10.7271 48.1665 11.0133 48.1665 11.3649V11.4187C48.1665 11.6397 48.2136 11.8286 48.3133 11.9951C48.4143 12.1603 48.5761 12.3076 48.8201 12.444C49.0635 12.5792 49.3972 12.7194 49.818 12.8546C50.2389 12.9871 50.7714 13.1338 51.4131 13.2811C52.485 13.5148 53.461 13.7941 54.3253 14.1155C55.1978 14.4358 55.9361 14.8206 56.542 15.2773C57.1523 15.7339 57.6177 16.284 57.9388 16.9334C58.2637 17.5815 58.4262 18.3519 58.4262 19.2447V19.301C58.4262 20.2834 58.2418 21.1627 57.8717 21.928C57.5023 22.6895 56.993 23.3466 56.3268 23.882C55.6695 24.4244 54.8685 24.8324 53.9415 25.1154C53.0094 25.3978 51.9676 25.5381 50.8222 25.5381Z" fill="#060606"/>
<path fill-rule="evenodd" clip-rule="evenodd" d="M61.5791 6.0484H66.7915V13.2772H73.4887V6.0484H78.7048V25.3593H73.4887V18.0223H66.7915V25.3593H61.5791V6.0484Z" fill="#060606"/>
<path fill-rule="evenodd" clip-rule="evenodd" d="M92.0063 20.9036C92.7333 20.9036 93.3962 20.7668 93.9986 20.4911C94.6005 20.2187 95.1102 19.8435 95.5296 19.3778C95.9452 18.91 96.2745 18.3601 96.5096 17.7388C96.746 17.1157 96.8661 16.4603 96.8661 15.7601V15.7035C96.8661 15.0071 96.746 14.3447 96.5096 13.7248C96.2745 13.1003 95.937 12.5478 95.4991 12.0749C95.0657 11.5982 94.5484 11.2166 93.9421 10.932C93.3428 10.6442 92.685 10.5041 91.9542 10.5041C91.224 10.5041 90.5662 10.6442 89.9739 10.9166C89.3822 11.189 88.8744 11.5642 88.4467 12.0287C88.0197 12.4977 87.6905 13.0476 87.4655 13.6637C87.2411 14.292 87.1217 14.9474 87.1217 15.6464V15.7035C87.1217 16.4 87.2412 17.0591 87.4807 17.6829C87.7133 18.3074 88.0464 18.8561 88.4722 19.3328C88.903 19.8095 89.4159 20.1924 90.0152 20.4757C90.6183 20.761 91.2805 20.9036 92.0063 20.9036ZM91.9656 25.7169C90.4976 25.7169 89.1363 25.4561 87.8849 24.9267C86.6349 24.4069 85.5564 23.7009 84.6501 22.7995C83.742 21.9026 83.0296 20.8426 82.5091 19.6367C81.9962 18.4243 81.7375 17.1381 81.7375 15.7601V15.7035C81.7375 14.3312 81.9962 13.0322 82.5091 11.8102C83.0296 10.5902 83.7477 9.52757 84.6724 8.61913C85.6015 7.71197 86.687 6.99563 87.937 6.47717C89.1916 5.95549 90.5509 5.6908 92.0254 5.6908C93.4928 5.6908 94.8483 5.95549 96.1029 6.47717C97.3555 6.99563 98.4346 7.70683 99.3402 8.60821C100.246 9.50508 100.958 10.5606 101.475 11.771C101.991 12.9782 102.253 14.2696 102.253 15.6464V15.7035C102.253 17.0778 101.991 18.3755 101.475 19.5975C100.958 20.8162 100.239 21.8801 99.3103 22.7886C98.3888 23.6932 97.297 24.4069 96.0457 24.9267C94.7962 25.4561 93.4368 25.7169 91.9656 25.7169Z" fill="#060606"/>
<path fill-rule="evenodd" clip-rule="evenodd" d="M114.087 15.3188C114.981 15.3188 115.674 15.1139 116.156 14.7008C116.642 14.2825 116.881 13.7276 116.881 13.0304V12.9724C116.881 12.2022 116.63 11.6293 116.131 11.2491C115.628 10.8695 114.937 10.6878 114.06 10.6878H110.648V15.3188H114.087ZM105.435 6.0484H114.33C115.779 6.0484 117.008 6.23078 118.012 6.60005C119.012 6.96867 119.828 7.48488 120.454 8.14028C121.566 9.24938 122.125 10.7484 122.125 12.643V12.703C122.125 14.191 121.77 15.418 121.075 16.3937C120.376 17.3694 119.433 18.117 118.254 18.6293L122.739 25.3593H116.719L112.932 19.5141H110.648V25.3593H105.435V6.0484Z" fill="#060606"/>
<path fill-rule="evenodd" clip-rule="evenodd" d="M130.404 10.7406H124.792V6.0484H141.205V10.7406H135.589V25.3593H130.404V10.7406Z" fill="#060606"/>
<path fill-rule="evenodd" clip-rule="evenodd" d="M152.781 25.7169C151.424 25.7169 150.15 25.4638 148.96 24.9742C147.766 24.4763 146.729 23.7837 145.852 22.8978C144.975 22.0041 144.281 20.9524 143.766 19.7343C143.251 18.5124 142.988 17.187 142.988 15.7601V15.7035C142.988 14.3075 143.244 13.0007 143.751 11.7839C144.258 10.569 144.952 9.50508 145.837 8.59664C146.726 7.68435 147.781 6.97315 148.999 6.46239C150.217 5.95163 151.55 5.6908 152.998 5.6908C153.975 5.6908 154.86 5.7846 155.655 5.97798C156.453 6.17007 157.177 6.44697 157.842 6.80739C158.499 7.16267 159.095 7.59055 159.629 8.08589C160.163 8.58186 160.637 9.1196 161.051 9.70617L157.092 12.8163C156.55 12.1199 155.953 11.5667 155.304 11.1665C154.654 10.7611 153.863 10.5606 152.947 10.5606C152.274 10.5606 151.666 10.6936 151.109 10.9583C150.561 11.223 150.088 11.5828 149.692 12.0434C149.289 12.5015 148.982 13.0476 148.755 13.6637C148.527 14.292 148.416 14.9474 148.416 15.6464V15.7035C148.416 16.4192 148.527 17.0932 148.755 17.7253C148.982 18.353 149.289 18.9049 149.692 19.3591C150.088 19.8223 150.561 20.1808 151.109 20.4494C151.666 20.7102 152.274 20.8426 152.947 20.8426C153.431 20.8426 153.878 20.7931 154.288 20.6839C154.692 20.5714 155.065 20.4121 155.401 20.2001C155.733 19.9842 156.05 19.742 156.348 19.4568C156.647 19.1709 156.938 18.8561 157.229 18.5085L161.185 21.3694C160.737 21.9906 160.245 22.5689 159.711 23.1021C159.176 23.6315 158.573 24.0934 157.894 24.4763C157.214 24.8579 156.457 25.165 155.617 25.3886C154.774 25.6077 153.83 25.7169 152.781 25.7169Z" fill="#060606"/>
<path fill-rule="evenodd" clip-rule="evenodd" d="M172.813 25.7169C171.477 25.7169 170.268 25.5416 169.199 25.1931C168.122 24.8406 167.214 24.3046 166.465 23.5797C165.708 22.8548 165.135 21.9322 164.734 20.8201C164.328 19.7048 164.13 18.3949 164.13 16.8884V6.0484H169.438V16.7789C169.438 18.1784 169.744 19.2119 170.368 19.8826C170.988 20.5546 171.826 20.889 172.872 20.889C173.917 20.889 174.754 20.5694 175.369 19.92C175.993 19.2834 176.304 18.2782 176.304 16.9187V6.0484H181.613V16.7525C181.613 18.3156 181.401 19.6597 180.981 20.7937C180.56 21.9212 179.97 22.8548 179.21 23.5797C178.451 24.3046 177.532 24.8406 176.451 25.1931C175.366 25.5416 174.156 25.7169 172.813 25.7169Z" fill="#060606"/>
<path fill-rule="evenodd" clip-rule="evenodd" d="M190.495 10.7406H184.886V6.0484H201.298V10.7406H195.679V25.3593H190.495V10.7406Z" fill="#060606"/>
<path fill-rule="evenodd" clip-rule="evenodd" d="M0 16.933V0.761292H16.4453L29.7022 14.0311V30.3383H13.3923L0 16.933H0ZM0 23.6865L6.64532 30.3383H0V23.6865ZM23.1923 0.761292H29.7022V7.27755L23.1923 0.761292V0.761292ZM0.99855 11.5572L19.0179 29.594L22.3913 26.2173L4.37203 8.18045L0.99855 11.5572ZM7.5587 4.99489L25.5738 23.0275L28.9473 19.6507L10.9322 1.61813L7.5587 4.99489Z" fill="#060606"/>
</g>
<defs>
<clipPath id="clip0_300_34782">
<rect width="201.298" height="29.577" fill="white" transform="translate(0 0.761292)"/>
</clipPath>
</defs>
</svg>
