<?xml version="1.0" encoding="utf-8"?>
<!-- Generator: Adobe Illustrator 25.1.0, SVG Export Plug-In . SVG Version: 6.00 Build 0)  -->
<svg version="1.1" id="Layer_1" xmlns="http://www.w3.org/2000/svg" xmlns:xlink="http://www.w3.org/1999/xlink" x="0px" y="0px"
	 viewBox="0 0 950.2 290" style="enable-background:new 0 0 950.2 290;" xml:space="preserve">
<g>
	<path d="M145.4,184.5c-35.3,0-64-15.6-64-34.9c0-19.3,28.6-34.9,63.9-34.9l0-17.2c10.9,0,21.4,1.5,30.4,4.1L145.5,132v17.5
		l30.2-30.8c20.1,5.9,33.7,17.5,33.7,30.8C209.4,168.8,180.8,184.5,145.4,184.5 M42.4,247.6h205.8V41.8H42.4V247.6z"/>
	<path d="M320.6,187.2c-4.9,0-9.4-0.6-13.3-1.7c-3.9-1.1-7.3-2.7-10.2-4.8c-2.8-2.1-5-4.7-6.6-7.8c-1.6-3.1-2.4-6.7-2.5-10.6h17
		c0.5,4,2,6.9,4.6,8.8c2.6,1.8,6.3,2.8,11,2.8c1.6,0,3.2-0.2,4.7-0.5s2.9-0.8,4-1.5c1.2-0.7,2.1-1.6,2.8-2.7c0.7-1.1,1-2.4,1-3.9
		c0-1.6-0.4-2.9-1.1-3.9c-0.8-1.1-1.9-1.9-3.3-2.7s-3.2-1.4-5.3-1.9c-2.1-0.6-4.5-1.1-7.1-1.7c-3.6-0.8-6.9-1.7-10.1-2.7
		s-5.9-2.3-8.3-3.9c-2.4-1.6-4.2-3.7-5.6-6.1c-1.3-2.5-2-5.6-2-9.4c0-3.8,0.7-7.1,2.2-9.9c1.4-2.8,3.5-5.1,6-6.9
		c2.6-1.8,5.6-3.2,9.1-4.1c3.5-0.9,7.3-1.3,11.3-1.3c4,0,7.7,0.5,11.1,1.4s6.4,2.3,8.9,4.1c2.5,1.8,4.5,4.1,6,6.9
		c1.5,2.7,2.4,5.9,2.7,9.5h-16.5c-0.5-2.9-1.8-5.1-3.9-6.7s-5.1-2.4-8.8-2.4c-3.5,0-6.3,0.7-8.4,2.1c-2.1,1.4-3.2,3.2-3.2,5.5
		c0,1.4,0.4,2.6,1.2,3.6c0.8,0.9,1.9,1.7,3.5,2.4c1.5,0.7,3.4,1.3,5.6,1.8c2.2,0.5,4.8,1.1,7.6,1.8c3.3,0.7,6.5,1.6,9.5,2.6
		c3.1,1,5.8,2.4,8.1,4.1c2.3,1.7,4.2,3.9,5.6,6.4c1.4,2.6,2.1,5.8,2.1,9.7c0,3.8-0.8,7.2-2.3,10.1c-1.5,2.9-3.6,5.4-6.3,7.4
		c-2.7,2-5.8,3.5-9.4,4.6C328.7,186.6,324.8,187.2,320.6,187.2"/>
	<path d="M379.3,162.5l-5.2,5.4v17.5h-15.3V112h15.3v22.9c0,3.9-0.1,7.2-0.2,10.1c-0.1,2.8-0.2,5.1-0.3,6.8l17.3-18.9h18l-18.8,19.4
		l20.9,33.1h-18L379.3,162.5z"/>
	<path d="M435.7,176.6c3.5,0,6.3-1,8.3-2.9c2.1-1.9,3.1-4.3,3.1-7.2v-6.8c-1.1,0.7-2.5,1.3-4.1,1.7c-1.6,0.4-3.3,0.8-5,1.2
		c-3.4,0.7-5.9,1.6-7.6,2.7s-2.5,2.7-2.5,5s0.8,3.9,2.3,4.8C431.8,176.2,433.6,176.6,435.7,176.6 M448.7,185.4
		c-0.4-0.6-0.8-1.4-1.1-2.5c-0.3-1.1-0.6-2.4-0.7-3.9h-0.2c-1.7,2.4-3.8,4.3-6.2,5.7c-2.4,1.4-5.6,2.1-9.7,2.1c-2.6,0-4.9-0.3-7.2-1
		c-2.2-0.7-4.1-1.7-5.7-3c-1.6-1.3-2.9-3-3.8-5c-0.9-2-1.3-4.3-1.3-6.9c0-2.9,0.6-5.3,1.6-7.2s2.6-3.5,4.4-4.6
		c1.8-1.2,4-2.1,6.5-2.7c2.5-0.6,5.2-1.1,8.1-1.4c4.7-0.7,8-1.4,10.1-2.4c2.1-0.9,3.1-2.4,3.1-4.3c0-1.9-0.6-3.4-1.9-4.6
		c-1.3-1.2-3.2-1.7-5.9-1.7c-3,0-5.2,0.6-6.7,1.9c-1.5,1.3-2.3,2.9-2.5,5h-14.3c0.1-2.2,0.6-4.4,1.6-6.5s2.4-4,4.3-5.6
		c1.9-1.6,4.3-2.9,7.2-3.9c2.9-0.9,6.3-1.4,10.2-1.4c3.4,0,6.3,0.2,8.7,0.7c2.4,0.5,4.6,1.3,6.4,2.4c2.8,1.6,4.8,3.7,6.1,6.4
		c1.3,2.7,1.9,5.8,1.9,9.3v26.9c0,4,0.7,6.5,2,7.3v0.9H448.7z"/>
	<path d="M468.7,132.9h7.9v-16.8h15.2v16.8h10.3v9.9h-10.3v26.1c0,2,0.5,3.3,1.5,4c1,0.7,2.4,1,4.3,1c0.5,0,1.1,0,1.8-0.1
		c0.7,0,1.3-0.1,1.8-0.1h0.8v11.5c-0.9,0.1-2,0.3-3.6,0.5c-1.5,0.2-3.3,0.3-5.4,0.3c-2.4,0-4.6-0.2-6.6-0.6c-2-0.4-3.7-1.2-5.2-2.3
		c-1.4-1.1-2.6-2.5-3.4-4.3c-0.8-1.7-1.2-4-1.2-6.7v-29.4h-7.9V132.9z"/>
	<path d="M506.6,132.9h7.9v-16.8h15.2v16.8H540v9.9h-10.3v26.1c0,2,0.5,3.3,1.5,4c1,0.7,2.4,1,4.3,1c0.5,0,1.1,0,1.8-0.1
		c0.7,0,1.3-0.1,1.8-0.1h0.8v11.5c-0.9,0.1-2,0.3-3.6,0.5c-1.5,0.2-3.3,0.3-5.4,0.3c-2.4,0-4.6-0.2-6.6-0.6c-2-0.4-3.7-1.2-5.2-2.3
		c-1.4-1.1-2.6-2.5-3.4-4.3c-0.8-1.7-1.2-4-1.2-6.7v-29.4h-7.9V132.9z"/>
	<path d="M572.6,142.4c-3.6,0-6.3,1.1-8.1,3.2c-1.8,2.1-3,5-3.6,8.6h22.4c-0.3-3.7-1.3-6.6-3.3-8.6S575.7,142.4,572.6,142.4
		 M573.4,187c-4.3,0-8.1-0.7-11.5-2.1c-3.4-1.4-6.3-3.4-8.7-5.9c-2.4-2.5-4.2-5.4-5.5-8.8c-1.3-3.4-1.9-7-1.9-11c0-3.9,0.7-7.6,2-11
		c1.3-3.4,3.2-6.3,5.5-8.8c2.4-2.5,5.2-4.5,8.5-5.9c3.3-1.4,6.9-2.1,11-2.1c3.8,0,7.1,0.6,10.1,1.8c3,1.2,5.6,2.8,7.9,4.9
		c3,2.9,5.1,6.5,6.5,10.8c1.4,4.3,2,9,2,14.2h-38.3c0.5,3.9,1.8,7,3.9,9.3c2.1,2.2,5,3.4,8.8,3.4c2.4,0,4.4-0.4,6-1.3
		c1.5-0.9,2.7-2.2,3.6-3.8h15c-0.7,2.3-1.7,4.5-3.1,6.5c-1.4,2-3.2,3.8-5.2,5.2c-2.1,1.5-4.5,2.6-7.3,3.4
		C579.8,186.6,576.7,187,573.4,187"/>
	<path d="M631.4,142.4c-3.6,0-6.3,1.1-8.1,3.2c-1.8,2.1-3,5-3.6,8.6h22.4c-0.3-3.7-1.3-6.6-3.3-8.6
		C637,143.4,634.5,142.4,631.4,142.4 M632.2,187c-4.3,0-8.1-0.7-11.5-2.1c-3.4-1.4-6.3-3.4-8.7-5.9c-2.4-2.5-4.2-5.4-5.5-8.8
		c-1.3-3.4-1.9-7-1.9-11c0-3.9,0.7-7.6,2-11c1.3-3.4,3.2-6.3,5.5-8.8c2.4-2.5,5.2-4.5,8.5-5.9c3.3-1.4,6.9-2.1,11-2.1
		c3.8,0,7.1,0.6,10.1,1.8c3,1.2,5.6,2.8,8,4.9c3,2.9,5.1,6.5,6.5,10.8c1.4,4.3,2,9,2,14.2h-38.3c0.5,3.9,1.8,7,3.9,9.3
		c2.1,2.2,5,3.4,8.8,3.4c2.4,0,4.4-0.4,6-1.3c1.5-0.9,2.7-2.2,3.6-3.8h15c-0.7,2.3-1.7,4.5-3.1,6.5c-1.4,2-3.2,3.8-5.2,5.2
		c-2.1,1.5-4.5,2.6-7.3,3.4C638.6,186.6,635.5,187,632.2,187"/>
	<path d="M661.7,132.9h7.9v-16.8h15.2v16.8h10.3v9.9h-10.3v26.1c0,2,0.5,3.3,1.5,4c1,0.7,2.4,1,4.3,1c0.5,0,1.1,0,1.8-0.1
		c0.7,0,1.3-0.1,1.8-0.1h0.8v11.5c-0.9,0.1-2,0.3-3.6,0.5c-1.5,0.2-3.3,0.3-5.4,0.3c-2.4,0-4.6-0.2-6.6-0.6c-2-0.4-3.7-1.2-5.2-2.3
		c-1.4-1.1-2.6-2.5-3.4-4.3c-0.8-1.7-1.2-4-1.2-6.7v-29.4h-7.9V132.9z"/>
	<path d="M724.8,176.6c3.5,0,6.3-1,8.3-2.9c2.1-1.9,3.1-4.3,3.1-7.2v-6.8c-1.1,0.7-2.5,1.3-4.1,1.7c-1.6,0.4-3.3,0.8-5,1.2
		c-3.4,0.7-5.9,1.6-7.6,2.7s-2.5,2.7-2.5,5s0.8,3.9,2.3,4.8C720.9,176.2,722.7,176.6,724.8,176.6 M737.8,185.4
		c-0.4-0.6-0.8-1.4-1.1-2.5c-0.3-1.1-0.6-2.4-0.7-3.9h-0.2c-1.7,2.4-3.8,4.3-6.2,5.7c-2.4,1.4-5.6,2.1-9.7,2.1c-2.6,0-4.9-0.3-7.2-1
		c-2.2-0.7-4.1-1.7-5.7-3c-1.6-1.3-2.9-3-3.8-5c-0.9-2-1.3-4.3-1.3-6.9c0-2.9,0.6-5.3,1.6-7.2s2.6-3.5,4.4-4.6
		c1.8-1.2,4-2.1,6.5-2.7c2.5-0.6,5.2-1.1,8.1-1.4c4.7-0.7,8-1.4,10.1-2.4c2.1-0.9,3.1-2.4,3.1-4.3c0-1.9-0.6-3.4-1.9-4.6
		c-1.3-1.2-3.2-1.7-5.9-1.7c-3,0-5.2,0.6-6.7,1.9c-1.5,1.3-2.3,2.9-2.5,5h-14.3c0.1-2.2,0.6-4.4,1.6-6.5c1-2.1,2.4-4,4.3-5.6
		c1.9-1.6,4.3-2.9,7.2-3.9c2.9-0.9,6.3-1.4,10.2-1.4c3.4,0,6.3,0.2,8.7,0.7c2.4,0.5,4.6,1.3,6.4,2.4c2.8,1.6,4.8,3.7,6.1,6.4
		c1.3,2.7,1.9,5.8,1.9,9.3v26.9c0,4,0.6,6.5,2,7.3v0.9H737.8z"/>
	<path d="M757.8,132.9h7.9v-16.8h15.2v16.8h10.3v9.9h-10.3v26.1c0,2,0.5,3.3,1.5,4c1,0.7,2.4,1,4.3,1c0.5,0,1.1,0,1.8-0.1
		c0.7,0,1.3-0.1,1.8-0.1h0.8v11.5c-0.9,0.1-2.1,0.3-3.6,0.5c-1.5,0.2-3.3,0.3-5.4,0.3c-2.4,0-4.6-0.2-6.7-0.6
		c-2-0.4-3.7-1.2-5.2-2.3c-1.4-1.1-2.6-2.5-3.4-4.3c-0.8-1.7-1.2-4-1.2-6.7v-29.4h-7.9V132.9z"/>
	<path d="M823.8,142.4c-3.6,0-6.3,1.1-8.1,3.2c-1.8,2.1-3,5-3.6,8.6h22.4c-0.3-3.7-1.3-6.6-3.3-8.6
		C829.4,143.4,826.9,142.4,823.8,142.4 M824.6,187c-4.3,0-8.1-0.7-11.5-2.1c-3.4-1.4-6.3-3.4-8.7-5.9c-2.4-2.5-4.2-5.4-5.5-8.8
		c-1.3-3.4-1.9-7-1.9-11c0-3.9,0.7-7.6,2-11c1.3-3.4,3.2-6.3,5.5-8.8c2.4-2.5,5.2-4.5,8.5-5.9c3.3-1.4,6.9-2.1,11-2.1
		c3.8,0,7.1,0.6,10.1,1.8c3,1.2,5.6,2.8,8,4.9c3,2.9,5.1,6.5,6.5,10.8c1.4,4.3,2,9,2,14.2H812c0.5,3.9,1.8,7,3.9,9.3
		c2.1,2.2,5,3.4,8.8,3.4c2.4,0,4.4-0.4,6-1.3c1.5-0.9,2.7-2.2,3.6-3.8h15c-0.7,2.3-1.7,4.5-3.1,6.5c-1.4,2-3.2,3.8-5.2,5.2
		c-2.1,1.5-4.5,2.6-7.3,3.4C831,186.6,827.9,187,824.6,187"/>
	<path d="M873.1,140.9h0.3c1.6-3.2,3.8-5.5,6.6-7.1c2.7-1.6,5.9-2.4,9.6-2.4c5.8,0,10.3,1.8,13.5,5.3c3.2,3.5,4.8,8.3,4.8,14.2v34.6
		h-15.4v-31.6c0-2.9-0.7-5.2-2.2-7c-1.5-1.8-3.7-2.6-6.6-2.6c-3,0-5.5,1.1-7.3,3.3c-1.8,2.2-2.8,4.9-2.8,8.3v29.6h-15.5v-52.5h15
		V140.9z"/>
</g>
</svg>
