<?xml version="1.0" encoding="utf-8"?>
<!-- Generator: Adobe Illustrator 26.5.0, SVG Export Plug-In . SVG Version: 6.00 Build 0)  -->
<svg version="1.1" id="Vegvesen_logo_farger_pos" xmlns="http://www.w3.org/2000/svg" xmlns:xlink="http://www.w3.org/1999/xlink"
	 x="0px" y="0px" viewBox="0 0 456.4 238.1" style="enable-background:new 0 0 456.4 238.1;" xml:space="preserve">
<style type="text/css">
	.st0{fill:#FFD520;}
	.st1{fill:#ED1C2E;}
</style>
<g>
	<path class="st0" d="M261,63l5.7-23.8c-0.1-1.8-0.7-3.5-1.7-4.9c-4.4-5.7-13.4-3.4-19.2-1.7c-3.7-3.2-9.2-2.1-13.4-1
		c-0.5,0.1-1,0-1.2-0.4c-0.2-0.4,0.1-0.8,0.3-1c1.4-1,2.2-2.6,2.2-4.5c0-2.6-1.7-4.8-4.1-5.4v-5.2h3.6v-3h-3.6V8.8h-3v3.4h-3.5v3
		h3.5v5.2c-2.4,0.7-4.1,2.8-4.1,5.4c0,1.9,0.9,3.5,2.3,4.5c0.2,0.1,0.3,0.6,0.2,0.9c-0.2,0.4-0.6,0.6-1.1,0.4
		c-4.2-1.1-9.8-2.1-13.6,1c-5.8-1.6-14.8-4-19.2,1.7c-1,1.4-1.6,3.1-1.7,4.9l5.7,23.8H261z M249.3,36.2c0.2,0,0.4-0.1,0.4-0.1
		c3.8-0.6,8.5-1.3,11.7,0.8c-0.8,0.3-1.4,0.8-1.8,1.7c-0.1,0.2-0.1,0.5-0.1,0.7c0,0.4,0,0.8,0.2,1.2c-0.8-0.1-1.5,0-2.2,0.4
		c-1.2,0.8-1.8,2.9-1.5,5.2c0.4,1.5,1.1,2.4,2.1,2.8c1,0.3,2-0.2,2.8-0.6c-0.4,1.3-1.8,2.5-3.1,3c-1.9,0.6-4.3,0.5-5.8-0.3
		c-0.6-0.3-2.3-1.3-2.5-2.9c0.9,0.6,2.1,0.9,3.2,0.4c0.7-0.4,1.4-1.2,1.7-2.3c0.4-2.2,0-4.2-1.1-5.4c-0.8-0.7-1.7-0.7-2.5-0.5
		c0.2-0.4,0.3-0.7,0.3-1.2c0-0.2,0-0.3,0-0.5c-0.2-1.1-0.9-1.9-1.8-2.1V36.2z M234.6,48.8c1.9-1,2-3.8,1.6-5.6
		c-0.2-1.1-0.8-1.9-1.3-2.2c-0.7-0.5-1.6-0.4-2.2-0.3c0.2-0.4,0.3-0.9,0.3-1.4c0-0.5-0.1-1-0.5-1.4c-0.3-0.3-0.6-0.7-1.1-0.9
		c0.2-0.4,0.6-0.7,1.1-1c1.3-0.5,3-0.8,4.7-0.8c1.7,0,3.4,0.3,4.7,0.8c0.5,0.2,0.9,0.6,1.1,1c-0.5,0.2-0.8,0.5-1.1,0.9
		c-0.3,0.4-0.5,0.9-0.5,1.4c0,0.5,0.1,0.9,0.3,1.4c-0.7-0.1-1.5-0.2-2.2,0.3c-0.5,0.4-1.1,1.1-1.3,2.2c-0.3,1.9-0.2,4.6,1.6,5.6
		c1.2,0.6,2.4,0.1,3.3-0.4c-0.1,0.8-0.9,1.9-1.5,2.3c-1.4,0.8-2.9,1.2-4.5,1.2c-1.5,0-3.1-0.4-4.5-1.2c-0.6-0.4-1.4-1.5-1.5-2.3
		C232.2,48.9,233.4,49.4,234.6,48.8z M218,43.1c-0.2-1.1-0.8-1.9-1.3-2.2c-0.7-0.5-1.6-0.4-2.2-0.3c0.2-0.4,0.3-0.9,0.3-1.4
		c0-0.5-0.1-1-0.5-1.4c-0.3-0.3-0.6-0.7-1.1-0.9c0.2-0.4,0.6-0.7,1.1-1c1.3-0.5,3-0.8,4.7-0.8c1.7,0,3.4,0.3,4.7,0.8
		c0.5,0.2,0.9,0.6,1.1,1c-0.5,0.2-0.8,0.5-1.1,0.9c-0.3,0.4-0.5,0.9-0.5,1.4c0,0.5,0.1,0.9,0.3,1.4c-0.7-0.1-1.5-0.2-2.2,0.3
		c-0.5,0.4-1.1,1.1-1.3,2.2c-0.3,1.9-0.3,4.6,1.6,5.6c1.2,0.6,2.4,0.1,3.3-0.4c-0.1,0.8-0.9,1.9-1.5,2.3c-1.4,0.8-2.9,1.2-4.5,1.2
		c-1.5,0-3.1-0.4-4.5-1.2c-0.6-0.4-1.4-1.5-1.5-2.3c1,0.5,2.1,1,3.3,0.4C218.2,47.7,218.3,45,218,43.1z M198.6,41
		c-0.7-0.4-1.4-0.6-2.2-0.4c0.2-0.4,0.2-0.8,0.2-1.2c0-0.2,0-0.5-0.1-0.7c-0.3-0.9-1-1.4-1.8-1.7c3.3-2,7.9-1.3,11.7-0.8
		c0,0,0.2,0,0.4,0.1v0.5c-0.9,0.2-1.6,1-1.8,2.1c0,0.2,0,0.3,0,0.5c0,0.5,0.1,0.8,0.3,1.2c-0.8-0.2-1.7-0.3-2.5,0.5
		c-1.1,1.2-1.6,3.2-1.1,5.4c0.3,1,0.9,1.9,1.6,2.3c1.1,0.5,2.3,0.2,3.2-0.4c-0.2,1.6-1.9,2.6-2.5,2.9c-1.5,0.8-3.9,0.9-5.8,0.3
		c-1.2-0.4-2.7-1.7-3.1-3c0.8,0.4,1.8,0.9,2.8,0.6c1-0.4,1.7-1.3,2.1-2.8C200.4,43.9,199.8,41.9,198.6,41z M263.1,74.1
		c-0.3-0.6-1.1-1.3-2.1-1.3h-65.8c-1,0-1.8,0.8-2.1,1.3c-0.4,1.2,0,2.4,0.6,3.5l30.1,54.6c1,1.5,2.3,4.1,4.2,4.1
		c1.9,0,3.2-2.6,4.2-4.1l30.1-54.6C263.1,76.5,263.5,75.3,263.1,74.1z M244.4,89.1l-12.9,23.3c-0.4,0.7-1.4,2.4-3.5,2.4
		c-2.2,0-3.1-1.7-3.5-2.5l-12.9-23.3c-0.7-1.1-0.9-2.3-0.5-3.4l0.1-0.3l0.1-0.2c0.5-0.8,1.5-1.8,2.9-1.8h27.6c1.5,0,2.7,1.1,3.1,2
		l0,0.1l0,0.1C245.4,86.8,245.2,88,244.4,89.1z M209.3,123.2c3,4.3,1.1,7.9-3.9,7.7c-6.3-0.2-5.4-6.4-5.5-7.9c0,0-1.9-2.8-3.7-5.5
		c0,0-14.2,0-23.5,0c-9.3,0-6.2-5.8-4.6-9.6c0.8-2-0.5-5.6-6.4-5.6h-17.2c-1.4,0-2.3-1.1-2.3-1.1l-4.9-5.5h31.1
		c1.2,0,1.3-2.3-0.1-2.3c0,0-27.6,0-33.1,0l-5.1-5.7h42.3c1.2-0.1,1.6-2.1,0-2.3c0,0-35.7,0-44.4,0l-4.5-5.1
		c-0.6-0.7-0.4-1.3,0.5-1.3h56.8c1.1,0.1,1.3,0.3,2.1,1.8c0.9,1.5,3,5.2,3.5,6.3c0.6,1.2,0.9,2.1-0.3,4.1c-1.2,2-6,10.4-6.9,11.9
		c-0.9,1.4-2,4.7,1.7,4.7h17.4c1.6,0,2.2,0.3,2.9,1.6C202.3,110.9,209.3,123.2,209.3,123.2z M332.4,80.4l-4.5,5.1
		c-8.6,0-44.4,0-44.4,0c-1.6,0.2-1.2,2.1,0,2.3h42.3l-5.1,5.7c-5.5,0-33.1,0-33.1,0c-1.4,0-1.2,2.3-0.1,2.3h31.1l-4.9,5.5
		c0,0-0.9,1.1-2.3,1.1h-17.2c-5.8,0-7.2,3.5-6.4,5.6c1.6,3.8,4.7,9.6-4.6,9.6c-9.3,0-23.5,0-23.5,0c-1.9,2.7-3.7,5.5-3.7,5.5
		c-0.1,1.5,0.8,7.6-5.5,7.9c-5,0.2-6.9-3.4-3.9-7.7c0,0,7-12.4,7.7-13.7c0.7-1.3,1.3-1.6,2.9-1.6h17.4c3.7,0,2.6-3.3,1.7-4.7
		c-0.9-1.4-5.7-9.8-6.9-11.9c-1.2-2-0.9-2.9-0.3-4.1c0.6-1.2,2.7-4.9,3.5-6.3c0.9-1.4,1-1.7,2.1-1.8h56.8
		C332.9,79.2,333,79.8,332.4,80.4z"/>
	<path d="M262.7,65.2l6.3-25.8c0.1-2.1-0.8-4.5-2-6.3c-5.3-6.9-15-4.5-20.8-2.9c-2.4-1.6-5.5-2.3-9.1-1.8c0,0,0,0,0,0
		c0,0-1,0.2-1.8,0.3c0.4-0.9,0.6-2,0.6-3.1c0-3.1-1.8-5.8-4.5-7v-1.8c0.6,0,3.5,0,3.5,0v-6.5c0,0-2.9,0-3.5,0c0-0.6,0-3.5,0-3.5
		h-6.6c0,0,0,2.9,0,3.5c-0.6,0-3.6,0-3.6,0v6.5c0,0,2.9,0,3.6,0v1.8c-2.6,1.2-4.5,3.9-4.5,7c0,1.1,0.2,2.1,0.6,3.1
		c-0.3-0.1-1.4-0.2-1.8-0.3c-3.5-0.6-6.6,0.1-9.1,1.8c-5.8-1.6-15.4-4-20.8,2.9c-1.3,1.7-2.1,4.2-2,6.3l6.3,25.8H262.7z M191.2,34.3
		c4.4-5.7,13.4-3.4,19.2-1.7c3.7-3.2,9.4-2.1,13.6-1c0.5,0.1,0.9,0,1.1-0.4c0.1-0.3,0-0.8-0.2-0.9c-1.4-1-2.3-2.7-2.3-4.5
		c0-2.6,1.7-4.7,4.1-5.4v-5.2h-3.5v-3h3.5V8.8h3v3.4h3.6v3h-3.6v5.2c2.4,0.7,4.1,2.8,4.1,5.4c0,1.8-0.9,3.5-2.2,4.5
		c-0.2,0.1-0.4,0.6-0.3,1c0.2,0.4,0.7,0.5,1.2,0.4c4.2-1,9.7-2.1,13.4,1c5.8-1.6,14.8-4,19.2,1.7c1,1.4,1.6,3.1,1.7,4.9L261,63
		h-65.8l-5.7-23.8C189.6,37.4,190.2,35.7,191.2,34.3z M230.8,38.9c0.4,0.9,0,1.6-0.5,2.4c-0.4,0.6-1.1,1.3-0.8,1.9
		c0.1,0.3,0.4,0.5,0.6,0.5c0.5,0.1,1-0.3,1.5-0.7c0.3-0.2,0.6-0.5,0.9-0.6c0.6-0.2,1.2,0,1.5,0.5c0.5,0.9,0.6,2.5,0.2,3.5
		c-0.6,1.1-1.5,0.7-2.6,0.1c-0.5-0.3-0.9-0.6-1.4-0.6c-0.7,0-1,1.2-1,1.8c-0.1,2.2,1.4,4.2,3.6,5.2c1.3,0.6,2.9,0.9,4.5,0.8
		c1.6,0,3.2-0.3,4.5-0.8c2.2-1,3.7-3.1,3.6-5.2c0-0.6-0.3-1.8-1-1.8c-0.5,0-0.9,0.3-1.4,0.6c-1.1,0.6-2,1-2.6-0.1
		c-0.4-0.9-0.3-2.6,0.2-3.5c0.3-0.5,1-0.7,1.5-0.5c0.3,0.1,0.6,0.3,0.9,0.6c0.5,0.4,1,0.8,1.5,0.7c0.2,0,0.5-0.2,0.6-0.5
		c0.2-0.6-0.5-1.3-0.8-1.9c-0.5-0.8-0.9-1.6-0.5-2.4c0.3-0.4,0.8-0.7,1.5-0.7l0.3,0c-0.3-1.6-0.8-3.6-4.1-4.4
		c-0.9-0.2-2.2-0.5-4.1-0.5c-1.8,0-3.2,0.3-4.1,0.5c-3.3,0.8-3.8,2.8-4.1,4.4l0.3,0C230,38.2,230.5,38.4,230.8,38.9z M232.5,36
		c1.3-0.5,3-0.8,4.7-0.8c1.7,0,3.4,0.3,4.7,0.8c0.5,0.2,0.9,0.6,1.1,1c-0.5,0.2-0.8,0.5-1.1,0.9c-0.3,0.4-0.5,0.9-0.5,1.4
		c0,0.5,0.1,0.9,0.3,1.4c-0.7-0.1-1.5-0.2-2.2,0.3c-0.5,0.4-1.1,1.1-1.3,2.2c-0.3,1.9-0.2,4.6,1.6,5.6c1.2,0.6,2.4,0.1,3.3-0.4
		c-0.1,0.8-0.9,1.9-1.5,2.3c-1.4,0.8-2.9,1.2-4.5,1.2c-1.5,0-3.1-0.4-4.5-1.2c-0.6-0.4-1.4-1.5-1.5-2.3c1,0.5,2.1,1,3.3,0.4
		c1.9-1,2-3.8,1.6-5.6c-0.2-1.1-0.8-1.9-1.3-2.2c-0.7-0.5-1.6-0.4-2.2-0.3c0.2-0.4,0.3-0.9,0.3-1.4c0-0.5-0.1-1-0.5-1.4
		c-0.3-0.3-0.6-0.7-1.1-0.9C231.6,36.6,232,36.2,232.5,36z M265.4,73.3l0-0.1l-0.1-0.1c-0.6-1.3-2.2-2.7-4.3-2.7h-65.8
		c-2,0-3.6,1.4-4.2,2.7l-0.1,0.2l-0.1,0.2c-0.4,1.2-0.6,3.1,0.8,5.4l30.9,55.9c0.9,1.5,2.3,4,5.4,4l0.1,0l0.1,0
		c3.1-0.1,4.6-2.6,5.5-4.1l30.9-55.9C265.9,76.4,265.8,74.5,265.4,73.3z M262.5,77.5l-30.1,54.6c-1,1.5-2.3,4.1-4.2,4.1
		c-1.9,0-3.3-2.6-4.2-4.1l-30.1-54.6c-0.6-1-1.1-2.2-0.6-3.5c0.3-0.6,1.1-1.3,2.1-1.3H261c1,0,1.9,0.8,2.1,1.3
		C263.5,75.3,263.1,76.5,262.5,77.5z M245,85.5l0-0.1c-0.4-1-1.6-2-3.1-2h-27.6c-1.4,0-2.5,1-2.9,1.8l-0.1,0.2l-0.1,0.3
		c-0.3,1.1-0.1,2.3,0.5,3.4l12.9,23.3c0.4,0.7,1.4,2.5,3.5,2.5c2.2,0,3.1-1.7,3.5-2.4l12.9-23.3c0.7-1.1,0.9-2.3,0.6-3.5L245,85.5z
		 M242.5,87.8l-12.6,22.9c-0.4,0.6-0.9,1.7-1.8,1.7c-0.9,0-1.4-1.1-1.8-1.7l-12.7-22.9c-0.3-0.4-0.4-0.9-0.3-1.4
		c0.1-0.2,0.5-0.6,0.9-0.6h27.6c0.4,0,0.8,0.4,0.9,0.6C242.9,86.9,242.8,87.4,242.5,87.8z M334.9,78.6c-0.5-1.1-1.6-1.8-3-1.8h-27.6
		V0.6H152v76.2h-27.8c-1.4,0-2.5,0.7-3,1.8c-0.2,0.4-0.2,0.8-0.2,1.2c0,0.8,0.3,1.6,0.9,2.3c0,0,18.5,20.9,18.5,20.9
		c0.4,0.5,1.8,1.9,4.1,1.9h7.5v48.2h152.3v-48.2h7.3c2.2,0,3.7-1.5,4.1-1.9c0,0,18.5-20.9,18.5-20.9c0.6-0.7,0.9-1.5,0.9-2.3
		C335.2,79.3,335.1,78.9,334.9,78.6z M144.5,102.4c-1.4,0-2.3-1.1-2.3-1.1l-4.9-5.5h31.1c1.2,0,1.3-2.3-0.1-2.3c0,0-27.6,0-33.1,0
		l-5.1-5.7h42.3c1.2-0.1,1.6-2.1,0-2.3c0,0-35.7,0-44.4,0l-4.5-5.1c-0.6-0.7-0.4-1.3,0.5-1.3h56.8c1.1,0.1,1.3,0.3,2.1,1.8
		c0.9,1.5,3,5.2,3.5,6.3c0.6,1.2,0.9,2.1-0.3,4.1c-1.2,2-6,10.4-6.9,11.9c-0.9,1.4-2,4.7,1.7,4.7h17.4c1.6,0,2.2,0.3,2.9,1.6
		c0.7,1.3,7.7,13.7,7.7,13.7c3,4.3,1.1,7.9-3.9,7.7c-6.3-0.2-5.4-6.4-5.5-7.9c0,0-1.9-2.8-3.7-5.5c0,0-14.2,0-23.5,0
		c-9.3,0-6.2-5.8-4.6-9.6c0.8-2-0.5-5.6-6.4-5.6H144.5z M301.9,150.6H154.3v-45.8h7.3c2.8,0,3.7,0.8,3.9,1.3
		c0.2,0.5,0.2,1.1-0.1,1.7c-0.8,1.7-1.7,3.9-1.7,6c0,1.1,0.2,2.1,0.9,3.1c1.3,2,3.9,3,7.9,3c0,0,20,0,22.3,0
		c0.8,1.2,2.1,3.2,2.6,3.9c0,0,0,0.1,0,0.1c0,6,2.6,9.2,7.8,9.4c3.3,0.1,5.8-1.1,7.1-3.3c1.3-2.3,0.9-5.3-1.1-8.1l-7.6-13.4
		c-1.2-2.4-2.9-2.9-5-2.9l-17.6,0c0.1-0.3,0.2-0.7,0.5-1.1l4.5-7.8l2.4-4.1c0.8-1.4,1.1-2.5,1.1-3.5c0-1.1-0.4-2-0.8-2.8
		c-0.6-1.3-2.8-5.1-3.6-6.5l0-0.1c-1-1.7-2-2.8-3.9-2.9h-26.9V3h147.6v73.8h-27c-1.9,0.1-2.9,1.2-3.9,2.9l0,0.1
		c-0.8,1.4-3,5.2-3.6,6.5c-0.4,0.9-0.8,1.7-0.8,2.8c0,1,0.3,2.1,1.1,3.5l2.4,4.1l4.5,7.8c0.2,0.4,0.4,0.8,0.5,1.1l-17.6,0
		c-2.1,0-3.8,0.5-5,2.9l-7.6,13.4c-2,2.9-2.4,5.8-1.1,8.1c1.2,2.2,3.8,3.4,7.1,3.3c5.2-0.2,7.8-3.3,7.8-9.4c0,0,0-0.1,0-0.1
		c0.5-0.7,1.8-2.7,2.6-3.9c2.3,0,22.3,0,22.3,0c4,0,6.6-1,7.9-3c0.6-1,0.9-2,0.9-3.1c0-2.1-0.9-4.3-1.7-6c-0.3-0.6-0.3-1.2-0.1-1.7
		c0.3-0.5,1.1-1.3,3.9-1.3h7.4V150.6z M332.4,80.4l-4.5,5.1c-8.6,0-44.4,0-44.4,0c-1.6,0.2-1.2,2.1,0,2.3h42.3l-5.1,5.7
		c-5.5,0-33.1,0-33.1,0c-1.4,0-1.2,2.3-0.1,2.3h31.1l-4.9,5.5c0,0-0.9,1.1-2.3,1.1h-17.2c-5.8,0-7.2,3.5-6.4,5.6
		c1.6,3.8,4.7,9.6-4.6,9.6c-9.3,0-23.5,0-23.5,0c-1.9,2.7-3.7,5.5-3.7,5.5c-0.1,1.5,0.8,7.6-5.5,7.9c-5,0.2-6.9-3.4-3.9-7.7
		c0,0,7-12.4,7.7-13.7c0.7-1.3,1.3-1.6,2.9-1.6h17.4c3.7,0,2.6-3.3,1.7-4.7c-0.9-1.4-5.7-9.8-6.9-11.9c-1.2-2-0.9-2.9-0.3-4.1
		c0.6-1.2,2.7-4.9,3.5-6.3c0.9-1.4,1-1.7,2.1-1.8h56.8C332.9,79.2,333,79.8,332.4,80.4z M212.5,38.9c0.4,0.9,0,1.6-0.5,2.4
		c-0.4,0.6-1.1,1.3-0.8,1.9c0.1,0.3,0.4,0.5,0.6,0.5c0.5,0.1,1-0.3,1.5-0.7c0.3-0.2,0.6-0.5,0.9-0.6c0.6-0.2,1.2,0,1.5,0.5
		c0.5,0.9,0.6,2.5,0.2,3.5c-0.6,1.1-1.5,0.7-2.6,0.1c-0.5-0.3-0.9-0.6-1.4-0.6c-0.7,0-1,1.2-1,1.8c-0.1,2.2,1.4,4.2,3.6,5.2
		c1.3,0.6,2.9,0.9,4.5,0.8c1.6,0,3.2-0.3,4.5-0.8c2.2-1,3.7-3.1,3.6-5.2c0-0.6-0.3-1.8-1-1.8c-0.5,0-0.9,0.3-1.4,0.6
		c-1.1,0.6-2,1-2.6-0.1c-0.4-0.9-0.3-2.6,0.2-3.5c0.3-0.5,1-0.7,1.5-0.5c0.3,0.1,0.6,0.3,0.9,0.6c0.5,0.4,1,0.8,1.5,0.7
		c0.2,0,0.5-0.2,0.6-0.5c0.2-0.6-0.5-1.3-0.8-1.9c-0.5-0.8-0.9-1.6-0.5-2.4c0.3-0.4,0.8-0.7,1.5-0.7l0.3,0c-0.3-1.6-0.8-3.6-4.1-4.4
		c-0.9-0.2-2.2-0.5-4.1-0.5c-1.8,0-3.2,0.3-4.1,0.5c-3.3,0.8-3.8,2.8-4.1,4.4l0.3,0C211.7,38.2,212.2,38.4,212.5,38.9z M214.2,36
		c1.3-0.5,3-0.8,4.7-0.8c1.7,0,3.4,0.3,4.7,0.8c0.5,0.2,0.9,0.6,1.1,1c-0.5,0.2-0.8,0.5-1.1,0.9c-0.3,0.4-0.5,0.9-0.5,1.4
		c0,0.5,0.1,0.9,0.3,1.4c-0.7-0.1-1.5-0.2-2.2,0.3c-0.5,0.4-1.1,1.1-1.3,2.2c-0.3,1.9-0.3,4.6,1.6,5.6c1.2,0.6,2.4,0.1,3.3-0.4
		c-0.1,0.8-0.9,1.9-1.5,2.3c-1.4,0.8-2.9,1.2-4.5,1.2c-1.5,0-3.1-0.4-4.5-1.2c-0.6-0.4-1.4-1.5-1.5-2.3c1,0.5,2.1,1,3.3,0.4
		c1.9-1,2-3.8,1.6-5.6c-0.2-1.1-0.8-1.9-1.3-2.2c-0.7-0.5-1.6-0.4-2.2-0.3c0.2-0.4,0.3-0.9,0.3-1.4c0-0.5-0.1-1-0.5-1.4
		c-0.3-0.3-0.6-0.7-1.1-0.9C213.3,36.6,213.7,36.2,214.2,36z M207.1,51.4c1.2-1.4,1.7-3.2,1.3-4.8c-0.3-1.1-1.6-0.6-2.3-0.1
		c-0.6,0.3-1.1,0.7-1.7,0.5c-0.4-0.1-0.7-0.6-0.8-0.9c-0.4-1.2-0.2-2.7,0.4-3.6c0.2-0.3,0.6-0.3,1-0.3c0.5,0,1,0.4,1.4,0.7
		c0.6,0.5,1.5,1,2,0.4c0.5-0.6-0.1-1.4-0.6-2c-0.4-0.6-0.8-1.1-0.8-1.8c0-0.5,0.2-0.9,0.6-1.2c0.4-0.4,1-0.4,1-0.4l0.2,0l0-0.2
		c0-0.8,0.2-1.7,0.5-2.8c-3.3-1.1-6.7-1.5-10.7-1.3c-3.7,0.4-6.1,1.9-7,4.2c0,0,1.2,0.1,1.8,0.4c0.3,0.2,1.2,0.7,1.1,1.7
		c-0.1,0.5-0.4,1-0.7,1.5c-0.3,0.6-1,1.4-0.7,1.9c0.5,0.9,1.4,0.2,2-0.3c0.4-0.3,0.8-0.5,1.1-0.6c0.3-0.1,1-0.1,1.4,0.4
		c0.6,0.8,0.8,2.9,0.1,4c-0.7,0.6-1.3,0.2-2.1-0.2c-0.6-0.2-1-0.5-1.6-0.6c-0.3-0.1-0.9,0-0.9,0.9c0.1,2.6,1.2,4.8,3.6,5.8
		C199.9,54.3,204.5,54.1,207.1,51.4z M195.2,48.5c0.8,0.4,1.8,0.9,2.8,0.6c1-0.4,1.7-1.3,2.1-2.8c0.3-2.3-0.3-4.3-1.5-5.2
		c-0.7-0.4-1.4-0.6-2.2-0.4c0.2-0.4,0.2-0.8,0.2-1.2c0-0.2,0-0.5-0.1-0.7c-0.3-0.9-1-1.4-1.8-1.7c3.3-2,7.9-1.3,11.7-0.8
		c0,0,0.2,0,0.4,0.1v0.5c-0.9,0.2-1.6,1-1.8,2.1c0,0.2,0,0.3,0,0.5c0,0.5,0.1,0.8,0.3,1.2c-0.8-0.2-1.7-0.3-2.5,0.5
		c-1.1,1.2-1.6,3.2-1.1,5.4c0.3,1,0.9,1.9,1.6,2.3c1.1,0.5,2.3,0.2,3.2-0.4c-0.2,1.6-1.9,2.6-2.5,2.9c-1.5,0.8-3.9,0.9-5.8,0.3
		C197,51,195.6,49.7,195.2,48.5z M247.4,38l0.2,0c0,0,0.6,0,1,0.4c0.4,0.3,0.5,0.7,0.6,1.2c0.1,0.7-0.4,1.2-0.8,1.8
		c-0.4,0.6-1.1,1.4-0.6,2c0.6,0.7,1.4,0.1,2-0.4c0.4-0.3,0.9-0.7,1.4-0.7c0.3,0,0.8,0,1,0.3c0.6,0.9,0.7,2.4,0.4,3.6
		c-0.1,0.2-0.4,0.8-0.8,0.9c-0.6,0.2-1.1-0.2-1.7-0.5c-0.7-0.4-2.1-0.9-2.3,0.1c-0.4,1.6,0.1,3.4,1.3,4.8c2.6,2.7,7.2,2.9,10.4,1.5
		c2.4-1.1,3.5-3.2,3.6-5.8c0-0.9-0.6-1-0.9-0.9c-0.6,0.1-1,0.4-1.6,0.6c-0.8,0.3-1.4,0.8-2.1,0.2c-0.7-1.1-0.5-3.2,0.1-4
		c0.3-0.5,1-0.5,1.4-0.4c0.3,0.1,0.7,0.4,1.1,0.6c0.6,0.5,1.5,1.1,2,0.3c0.3-0.5-0.3-1.3-0.7-1.9c-0.3-0.5-0.6-1-0.7-1.5
		c-0.1-1,0.8-1.5,1.1-1.7c0.6-0.3,1.8-0.4,1.8-0.4c-0.9-2.4-3.2-3.8-7-4.2c-3.9-0.3-7.3,0.2-10.7,1.3c0.3,1.1,0.5,2,0.5,2.8
		L247.4,38z M249.3,36.2c0.2,0,0.4-0.1,0.4-0.1c3.8-0.6,8.5-1.3,11.7,0.8c-0.8,0.3-1.4,0.8-1.8,1.7c-0.1,0.2-0.1,0.5-0.1,0.7
		c0,0.4,0,0.8,0.2,1.2c-0.8-0.1-1.5,0-2.2,0.4c-1.2,0.8-1.8,2.9-1.5,5.2c0.4,1.5,1.1,2.4,2.1,2.8c1,0.3,2-0.2,2.8-0.6
		c-0.4,1.3-1.8,2.5-3.1,3c-1.9,0.6-4.3,0.5-5.8-0.3c-0.6-0.3-2.3-1.3-2.5-2.9c0.9,0.6,2.1,0.9,3.2,0.4c0.7-0.4,1.4-1.2,1.7-2.3
		c0.4-2.2,0-4.2-1.1-5.4c-0.8-0.7-1.7-0.7-2.5-0.5c0.2-0.4,0.3-0.7,0.3-1.2c0-0.2,0-0.3,0-0.5c-0.2-1.1-0.9-1.9-1.8-2.1V36.2z"/>
	<path class="st1" d="M242.8,86.3c0.2,0.5,0,1-0.3,1.4l-12.6,22.9c-0.4,0.6-0.9,1.7-1.8,1.7c-0.9,0-1.4-1.1-1.8-1.7l-12.7-22.9
		c-0.3-0.4-0.4-0.9-0.3-1.4c0.1-0.2,0.5-0.6,0.9-0.6h27.6C242.3,85.7,242.7,86.1,242.8,86.3z M267.4,86.2c-0.4,0.9-0.8,1.7-0.8,2.8
		c0,1,0.3,2.1,1.1,3.5l2.4,4.1l4.5,7.8c0.2,0.4,0.4,0.8,0.5,1.1l-17.6,0c-2.1,0-3.8,0.5-5,2.9l-7.6,13.4c-2,2.9-2.4,5.8-1.1,8.1
		c1.2,2.2,3.8,3.4,7.1,3.3c5.2-0.2,7.8-3.3,7.8-9.4c0,0,0-0.1,0-0.1c0.5-0.7,1.8-2.7,2.6-3.9c2.3,0,22.3,0,22.3,0c4,0,6.6-1,7.9-3
		c0.6-1,0.9-2,0.9-3.1c0-2.1-0.9-4.3-1.7-6c-0.3-0.6-0.3-1.2-0.1-1.7c0.3-0.5,1.1-1.3,3.9-1.3h7.4v45.8H154.3v-45.8h7.3
		c2.8,0,3.7,0.8,3.9,1.3c0.2,0.5,0.2,1.1-0.1,1.7c-0.8,1.7-1.7,3.9-1.7,6c0,1.1,0.2,2.1,0.9,3.1c1.3,2,3.9,3,7.9,3c0,0,20,0,22.3,0
		c0.8,1.2,2.1,3.2,2.6,3.9c0,0,0,0.1,0,0.1c0,6,2.6,9.2,7.8,9.4c3.3,0.1,5.8-1.1,7.1-3.3c1.3-2.3,0.9-5.3-1.1-8.1l-7.6-13.4
		c-1.2-2.4-2.9-2.9-5-2.9l-17.6,0c0.1-0.3,0.2-0.7,0.5-1.1l4.5-7.8l2.4-4.1c0.8-1.4,1.1-2.5,1.1-3.5c0-1.1-0.4-2-0.8-2.8
		c-0.6-1.3-2.8-5.1-3.6-6.5l0-0.1c-1-1.7-2-2.8-3.9-2.9h-26.9V3h147.6v73.8h-27c-1.9,0.1-2.9,1.2-3.9,2.9l0,0.1
		C270.2,81.1,268,84.9,267.4,86.2z M265.4,73.3l0-0.1l-0.1-0.1c-0.6-1.3-2.2-2.7-4.3-2.7h-65.8c-2,0-3.6,1.4-4.2,2.7l-0.1,0.2
		l-0.1,0.2c-0.4,1.2-0.6,3.1,0.8,5.4l30.9,55.9c0.9,1.5,2.3,4,5.4,4l0.1,0l0.1,0c3.1-0.1,4.6-2.6,5.5-4.1l30.9-55.9
		C265.9,76.4,265.8,74.5,265.4,73.3z M269,39.5c0.1-2.1-0.8-4.5-2-6.3c-5.3-6.9-15-4.5-20.8-2.9c-2.4-1.6-5.5-2.3-9.1-1.8
		c0,0,0,0,0,0c0,0-1,0.2-1.8,0.3c0.4-0.9,0.6-2,0.6-3.1c0-3.1-1.8-5.8-4.5-7v-1.8c0.6,0,3.5,0,3.5,0v-6.5c0,0-2.9,0-3.5,0
		c0-0.6,0-3.5,0-3.5h-6.6c0,0,0,2.9,0,3.5c-0.6,0-3.6,0-3.6,0v6.5c0,0,2.9,0,3.6,0v1.8c-2.6,1.2-4.5,3.9-4.5,7
		c0,1.1,0.2,2.1,0.6,3.1c-0.3-0.1-1.4-0.2-1.8-0.3c-3.5-0.6-6.6,0.1-9.1,1.8c-5.8-1.6-15.4-4-20.8,2.9c-1.3,1.7-2.1,4.2-2,6.3
		l6.3,25.8h69.2L269,39.5z M194.7,36.9c0.8,0.3,1.4,0.8,1.8,1.7c0.1,0.2,0.1,0.5,0.1,0.7c0,0.4,0,0.8-0.2,1.2c0.8-0.1,1.5,0,2.2,0.4
		c1.2,0.8,1.8,2.9,1.5,5.2c-0.4,1.5-1.1,2.4-2.1,2.8c-1,0.3-2-0.2-2.8-0.6c0.4,1.3,1.8,2.5,3.1,3c1.9,0.6,4.3,0.5,5.8-0.3
		c0.6-0.3,2.3-1.3,2.5-2.9c-0.9,0.6-2.1,0.9-3.2,0.4c-0.7-0.4-1.4-1.2-1.6-2.3c-0.4-2.2,0-4.2,1.1-5.4c0.8-0.7,1.7-0.7,2.5-0.5
		c-0.2-0.4-0.3-0.7-0.3-1.2c0-0.2,0-0.3,0-0.5c0.2-1.1,0.9-1.9,1.8-2.1v-0.5c-0.2,0-0.4-0.1-0.4-0.1C202.6,35.6,198,34.9,194.7,36.9
		z M261.5,36.9c-3.3-2-7.9-1.3-11.7-0.8c0,0-0.2,0-0.4,0.1v0.5c0.9,0.2,1.6,1,1.8,2.1c0,0.2,0,0.3,0,0.5c0,0.5-0.1,0.8-0.3,1.2
		c0.8-0.2,1.7-0.3,2.5,0.5c1.1,1.2,1.6,3.2,1.1,5.4c-0.3,1-0.9,1.9-1.7,2.3c-1.1,0.5-2.3,0.2-3.2-0.4c0.2,1.6,1.9,2.6,2.5,2.9
		c1.5,0.8,3.9,0.9,5.8,0.3c1.2-0.4,2.7-1.7,3.1-3c-0.8,0.4-1.8,0.9-2.8,0.6c-1-0.4-1.7-1.3-2.1-2.8c-0.3-2.3,0.3-4.3,1.5-5.2
		c0.7-0.4,1.4-0.6,2.2-0.4c-0.2-0.4-0.2-0.8-0.2-1.2c0-0.2,0-0.5,0.1-0.7C260.1,37.7,260.7,37.3,261.5,36.9z M221.6,48.8
		c-1.9-1-2-3.8-1.6-5.6c0.2-1.1,0.8-1.9,1.3-2.2c0.7-0.5,1.6-0.4,2.2-0.3c-0.2-0.4-0.3-0.9-0.3-1.4c0-0.5,0.1-1,0.5-1.4
		c0.3-0.3,0.6-0.7,1.1-0.9c-0.2-0.4-0.6-0.7-1.1-1c-1.3-0.5-3-0.8-4.7-0.8c-1.7,0-3.4,0.3-4.7,0.8c-0.5,0.2-0.9,0.6-1.1,1
		c0.5,0.2,0.8,0.5,1.1,0.9c0.3,0.4,0.5,0.9,0.5,1.4c0,0.5-0.1,0.9-0.3,1.4c0.7-0.1,1.5-0.2,2.2,0.3c0.5,0.4,1.1,1.1,1.3,2.2
		c0.3,1.9,0.2,4.6-1.6,5.6c-1.2,0.6-2.4,0.1-3.3-0.4c0.1,0.8,0.9,1.9,1.5,2.3c1.4,0.8,3,1.2,4.5,1.2c1.5,0,3.1-0.4,4.5-1.2
		c0.6-0.4,1.4-1.5,1.5-2.3C224,48.9,222.8,49.4,221.6,48.8z M239.9,48.8c-1.9-1-2-3.8-1.6-5.6c0.2-1.1,0.8-1.9,1.3-2.2
		c0.7-0.5,1.6-0.4,2.2-0.3c-0.2-0.4-0.3-0.9-0.3-1.4c0-0.5,0.1-1,0.5-1.4c0.3-0.3,0.6-0.7,1.1-0.9c-0.2-0.4-0.6-0.7-1.1-1
		c-1.3-0.5-3-0.8-4.7-0.8c-1.7,0-3.4,0.3-4.7,0.8c-0.5,0.2-0.9,0.6-1.1,1c0.5,0.2,0.8,0.5,1.1,0.9c0.3,0.4,0.5,0.9,0.5,1.4
		c0,0.5-0.1,0.9-0.3,1.4c0.7-0.1,1.5-0.2,2.2,0.3c0.5,0.4,1.1,1.1,1.3,2.2c0.3,1.9,0.2,4.6-1.6,5.6c-1.2,0.6-2.4,0.1-3.3-0.4
		c0.1,0.8,0.9,1.9,1.5,2.3c1.4,0.8,2.9,1.2,4.5,1.2c1.5,0,3.1-0.4,4.5-1.2c0.6-0.4,1.4-1.5,1.5-2.3
		C242.2,48.9,241.1,49.4,239.9,48.8z"/>
	<g>
		<path d="M2.5,218c2.4,1.3,5.8,2.3,9.7,2.3c3,0,5.8-0.6,5.8-3.4c0-6.5-16.6-2.4-16.6-15.2c0-8.5,8.3-10.8,15.4-10.8
			c3.4,0,6.7,0.5,9.1,1.3l-0.6,7.3c-2.4-1.1-5.1-1.6-7.8-1.6c-2.4,0-6.3,0.2-6.3,3.3c0,5.7,16.7,1.9,16.7,14.6
			c0,9.1-7.6,11.6-15.5,11.6c-3.3,0-7.4-0.5-10.5-1.5L2.5,218"/>
	</g>
	<path d="M30.5,200.4h5.3v-5.9l8.9-2.8v8.7h6.4v6.4h-6.4v9.7c0,3.2,0.8,4.8,3.6,4.8c0.9,0,1.9-0.2,2.8-0.3l0.3,5.9
		c-1.7,0.2-3.4,0.5-5.7,0.5c-8.1,0-10.1-3.6-10.1-9.8v-10.7h-5.2V200.4"/>
	<path d="M72.4,226.7c-0.1-1.4-0.2-2.8-0.2-4.1h-0.1c-2.1,3.3-4.6,4.7-8.3,4.7c-5.2,0-9.8-2.6-9.8-8.3c0-8,8.7-9,13.6-9
		c1.5,0,3.1,0.2,4.3,0.4c-0.1-3.6-2.7-4.6-6-4.6c-2.9,0-5.8,0.6-8.3,2l-0.2-6.2c3.2-1.3,6.6-1.9,10.5-1.9c6.7,0,12.5,2.9,12.5,10.9
		v9.8c0,2.1,0.1,4.1,0.5,6.2H72.4 M66.1,221.2c3.4,0,5.6-3.1,5.6-6.2c-1.2-0.1-2.5-0.1-3.8-0.1c-3.1,0-5.5,0.9-5.5,3.5
		C62.4,220.2,64,221.2,66.1,221.2z"/>
	<path d="M83.7,200.4H89v-5.9l9-2.8v8.7h6.3v6.4H98v9.7c0,3.2,0.7,4.8,3.6,4.8c0.9,0,1.9-0.2,2.8-0.3l0.3,5.9
		c-1.7,0.2-3.4,0.5-5.7,0.5c-8.1,0-10.1-3.6-10.1-9.8v-10.7h-5.2V200.4"/>
	<path d="M116.3,216.2c0.5,3.6,3.3,5,7.7,5c2.5,0,5.3-0.6,8-2v6.4c-2.9,1.1-6.3,1.7-9.6,1.7c-8.7,0-15.3-5.1-15.3-13.8
		c0-8.7,5.9-13.7,14.1-13.7c9.7,0,13.3,6.9,13.3,14.7v1.7H116.3 M126.3,211c0-3-1.4-5.5-5-5.5c-3.3,0-4.9,2.5-5,5.5H126.3z"/>
	<path d="M139.2,200.4h8.3v4.8h0.1c1.8-3.8,5.4-5.5,9.6-5.5c7.2,0,10.1,5.1,10.1,10.5v16.4h-9.1V214c0-4.9-1.7-6.6-4.2-6.6
		c-3.7,0-5.6,2.6-5.6,8.2v11.1h-9.1V200.4"/>
	<path d="M172.4,219.4c2.1,0.9,5.3,1.8,8.5,1.8c1.9,0,3.7-0.3,3.7-2.1c0-4.4-12.9-1.3-12.9-10.8c0-6,6-8.5,11.2-8.5
		c3.1,0,6.3,0.4,9.2,1.5l-0.7,6.3c-1.9-1.2-4.8-1.8-7.1-1.8c-2,0-4.2,0.4-4.2,1.8c0,4.1,13.5,0.9,13.5,10.9c0,7-6.3,8.8-12.3,8.8
		c-4.1,0-6.9-0.4-9.5-1.3L172.4,219.4"/>
	<polyline points="211.2,200.4 220.9,200.4 226.4,219.1 226.5,219.1 232,200.4 241,200.4 231.3,226.7 220.9,226.7 211.2,200.4 	"/>
	<path d="M252.3,216.2c0.5,3.6,3.3,5,7.7,5c2.5,0,5.3-0.6,8-2v6.4c-2.9,1.1-6.3,1.7-9.6,1.7c-8.7,0-15.3-5.1-15.3-13.8
		c0-8.7,5.9-13.7,14.1-13.7c9.7,0,13.3,6.9,13.3,14.7v1.7H252.3 M262.3,211c0-3-1.4-5.5-5-5.5c-3.3,0-4.8,2.5-5,5.5H262.3z"/>
	<path d="M303,223.6c0,10.8-5.2,14.3-15.8,14.3c-4.4,0-7.9-0.9-10.1-1.6l0.5-7.2c2.7,1.4,5.1,2.2,8.9,2.2c5.2,0,8-2.5,8-7.6v-1.4
		h-0.1c-2.2,3.1-5.2,4.5-8.8,4.5c-7.2,0-11.7-5.4-11.7-13.2c0-7.8,3.7-13.7,11.9-13.7c3.9,0,7,2.1,8.9,5.4h0.1v-4.7h8.2V223.6
		 M288.5,219.7c3.2,0,5.8-2.7,5.8-6.7c0-2.9-1.7-6.2-5.8-6.2c-3.4,0-5.1,3-5.1,6.6C283.3,217.4,285.7,219.7,288.5,219.7z"/>
	<polyline points="306.6,200.4 316.3,200.4 321.8,219.1 321.9,219.1 327.4,200.4 336.4,200.4 326.7,226.7 316.3,226.7 306.6,200.4 	
		"/>
	<path d="M347.6,216.2c0.5,3.6,3.3,5,7.8,5c2.5,0,5.3-0.6,8-2v6.4c-2.9,1.1-6.2,1.7-9.6,1.7c-8.7,0-15.3-5.1-15.3-13.8
		c0-8.7,5.9-13.7,14.1-13.7c9.7,0,13.3,6.9,13.3,14.7v1.7H347.6 M357.6,211c0-3-1.4-5.5-5.1-5.5c-3.3,0-4.8,2.5-5.1,5.5H357.6z"/>
	<path d="M370,219.4c2.1,0.9,5.2,1.8,8.5,1.8c1.9,0,3.7-0.3,3.7-2.1c0-4.4-12.9-1.3-12.9-10.8c0-6,5.9-8.5,11.2-8.5
		c3.1,0,6.3,0.4,9.2,1.5l-0.7,6.3c-1.9-1.2-4.8-1.8-7-1.8c-2,0-4.2,0.4-4.2,1.8c0,4.1,13.5,0.9,13.5,10.9c0,7-6.3,8.8-12.2,8.8
		c-4.1,0-6.8-0.4-9.5-1.3L370,219.4"/>
	<path d="M403.7,216.2c0.5,3.6,3.3,5,7.7,5c2.5,0,5.3-0.6,8-2v6.4c-2.9,1.1-6.2,1.7-9.6,1.7c-8.6,0-15.3-5.1-15.3-13.8
		c0-8.7,5.9-13.7,14.1-13.7c9.8,0,13.3,6.9,13.3,14.7v1.7H403.7 M413.6,211c0-3-1.4-5.5-5-5.5c-3.3,0-4.9,2.5-5.1,5.5H413.6z"/>
	<path d="M426.6,200.4h8.3v4.8h0.1c1.8-3.8,5.4-5.5,9.6-5.5c7.2,0,10,5.1,10,10.5v16.4h-9.1V214c0-4.9-1.7-6.6-4.2-6.6
		c-3.8,0-5.6,2.6-5.6,8.2v11.1h-9.1V200.4"/>
</g>
</svg>
