<?xml version="1.0" encoding="UTF-8"?>
<!-- Generator: Adobe Illustrator 13.0.1, SVG Export Plug-In  -->
<!DOCTYPE svg PUBLIC "-//W3C//DTD SVG 1.1//EN" "http://www.w3.org/Graphics/SVG/1.1/DTD/svg11.dtd" [
	<!ENTITY ns_flows "http://ns.adobe.com/Flows/1.0/">
]>
<svg version="1.1" xmlns="http://www.w3.org/2000/svg" xmlns:xlink="http://www.w3.org/1999/xlink" xmlns:a="http://ns.adobe.com/AdobeSVGViewerExtensions/3.0/" x="0px" y="0px" width="115px" height="20px" viewBox="-0.205 -0.065 115 20" enable-background="new -0.205 -0.065 115 20" xml:space="preserve">
<defs>
</defs>
<polygon fill="#004B8D" points="85.035,18.883 77.664,11.592 77.664,15.998 80.618,18.883"/>
<polygon fill="#004B8D" points="89.185,3.219 89.18,3.211 89.182,3.215"/>
<path fill="#004B8D" d="M95.071,18.881l2.253-4.172h11.078l2.264,4.172h3.89l-9.184-17.027c-1.023-2.018-3.996-2-5.021,0.008  c0.004-0.004-5.004,9.303-7.614,14.152l-5.481-5.48c1.607-0.994,2.674-2.486,2.674-4.66c0-3.459-2.575-5.51-5.75-5.547L74.652,0.32  c-2.712,0-4.916,2.195-4.916,4.893v11.002c0,1.6,0.834,2.664,2.394,2.668h0.76L72.885,5.148c0-0.914,0.789-1.697,1.705-1.697  l9.795-0.002c1.334,0,2.434,1.084,2.434,2.439c0,1.344-1.094,2.436-2.434,2.436h-3.746l10.555,10.557H95.071z M98.911,11.631  c0.453-0.861,3.489-6.66,3.952-7.541c0.463,0.881,3.501,6.68,3.954,7.541H98.911z"/>
<path fill="#004B8D" d="M18.972,9.598c0,4.768,3.744,9.596,10.904,9.596c7.158,0,10.905-4.828,10.905-9.596  C40.781,4.828,37.034,0,29.876,0C22.716,0,18.972,4.828,18.972,9.598 M22.277,9.598c0-3.201,1.996-6.621,7.599-6.621  c5.604,0,7.599,3.42,7.599,6.621c0,3.199-1.995,6.617-7.599,6.617C24.273,16.215,22.277,12.797,22.277,9.598"/>
<path fill="#004B8D" d="M1.731,0.314c-2.293,0-2.322,3.08-0.001,3.133l6.258,0.006v15.428h3.52V3.453h6.256  c2.264,0,2.296-3.139,0-3.139H1.731z"/>
<path fill="#004B8D" d="M61.897,1.629c0,0-5.672,9.051-6.995,11.166c-0.517-0.82-6.999-11.166-6.999-11.166  c-0.547-0.869-1.043-1.283-2.398-1.283c-1.348,0-2.409,0.551-2.473,1.896l-0.017,16.639h3.31c0,0-0.007-11.408-0.009-13.488  c1.095,1.758,6.782,10.889,6.782,10.889c0.843,1.322,2.76,1.328,3.602,0.002c0.002-0.002,4.966-7.971,6.785-10.891  c-0.001,2.08-0.01,13.488-0.01,13.488h3.31L66.782,2.283c-0.005-1.184-1.154-1.938-2.486-1.938  C62.943,0.346,62.444,0.76,61.897,1.629"/>
</svg>