<?xml version="1.0" encoding="utf-8"?>
<!-- Generator: Adobe Illustrator 26.5.0, SVG Export Plug-In . SVG Version: 6.00 Build 0)  -->
<svg version="1.1" id="Layer_1" xmlns="http://www.w3.org/2000/svg" xmlns:xlink="http://www.w3.org/1999/xlink" x="0px" y="0px"
	 viewBox="0 0 619 181" style="enable-background:new 0 0 619 181;" xml:space="preserve">
<style type="text/css">
	.st0{fill:#171717;}
</style>
<g id="Logo_00000152226323569319630960000002056969664747877817_">
	<path class="st0" d="M532.6,176.8c-5.3,0-8.8-0.4-12.2-1.3v-19.3c3.1,0.8,6.6,1.3,9.4,1.3c11,0,17.6-4.8,22.9-16.4l2-4.5
		l-39.9-92.7h25.1l26.7,68.9l23.6-68.9h25.1l-38.8,95.9C566.5,164.3,551.7,176.8,532.6,176.8z M466.1,140.6
		c-18.6,0-30.6-10.2-30.6-26c0-9.7,4.9-17.5,14.6-23.1c8-4.7,19.3-7.6,31.8-8.4l11-0.6v-2.2c0-12.4-7.4-19.8-19.8-19.8
		c-12.4,0-20.3,7.4-21.2,19.8l-21-2.2c1.4-21.8,18.5-36.5,42.5-36.5c25.3,0,42.2,16.6,42.2,41.4v55.5h-21v-15.6l-0.5,1.4
		C490.7,133.8,479,140.6,466.1,140.6z M483.2,97c-12.3,0.9-25.3,5.5-25.3,16c0,8.1,7.5,11,14.6,11c10,0,21.2-8.9,21.2-21.8v-5.8
		L483.2,97z M370.1,140.6c-26.5,0-47.2-21.6-47.2-49.1c0-28.3,20.3-49.7,47.2-49.7c9.8,0,23.3,3.9,29.3,15l0.5,0.9V1.2h22.4v137.4
		H401v-14l-0.5,0.9C395.4,135,384.1,140.6,370.1,140.6z M373.7,60.6c-16.1,0-27.8,13-27.8,30.9c0,19.3,14.2,30.9,27.8,30.9
		c16,0,27.6-13,27.6-30.9C401.2,73.3,389.9,60.6,373.7,60.6z M265.8,140.6c-27.9,0-49.7-21.7-49.7-49.4c0-27.7,21.8-49.4,49.7-49.4
		c28,0,50,21.7,50,49.4C315.8,118.9,293.8,140.6,265.8,140.6z M265.8,60.9c-15.5,0-26.7,12.8-26.7,30.3s11.2,30.3,26.7,30.3
		c15.7,0,27-12.8,27-30.3S281.5,60.9,265.8,60.9z M47.6,140.6c-20.6,0-35.1-13.7-35.1-33.4c0-8.1,2.5-18.5,7.4-30.8l5.4-13.3H2.6
		V43.7h30l12.9-33.3l19.7,7.8L55,43.7h36.3l21.2,73l17-73h29.1l17,73l21.2-73h23.5l-31.3,95h-26.7l-18.1-71.9l-18.4,71.9H98.2
		L73.4,63.1h-26l-8.1,20.9c-3.3,8.6-4.7,15.3-4.7,21.9c0,9.7,6.2,16,15.7,16c4.9,0,11.8-2.3,15.3-4L71,135
		C64.7,138.3,55.3,140.6,47.6,140.6z"/>
	<path class="st0" d="M422,1.5v136.9h-20.8v-12.7v-2l-0.9,1.7c-5,9.3-16.3,14.9-30.2,14.9c-12.7,0-24.5-4.9-33.2-13.9
		c-8.9-9.1-13.8-21.5-13.8-35c0-13.4,4.7-25.9,13.3-35.1c8.7-9.3,20.6-14.4,33.6-14.4c9.7,0,23.2,3.9,29.1,14.9l0.9,1.7v-2V1.5
		L422,1.5 M373.7,122.6c8.2,0,15.2-3.2,20.3-9.2c4.8-5.7,7.5-13.5,7.5-21.9c0-18.3-11.4-31.1-27.8-31.1c-16.3,0-28.1,13.1-28.1,31.1
		C345.6,111,359.9,122.6,373.7,122.6 M45.7,10.7l19.2,7.6l-10,24.9L54.6,44h0.7h35.7l20.9,71.9l0.5,1.8l0.4-1.9L129.6,44h28.7
		l16.7,71.9l0.4,1.9l0.5-1.8L196.9,44h22.9l-31.1,94.5h-26.3l-17.8-70.8l-0.5-1.9l-0.5,1.9l-18.1,70.8H98.4L73.7,63.2l-0.1-0.3h-0.4
		H47.6h-0.3l-0.1,0.3l-8,20.7c-3.3,8.6-4.7,15.4-4.7,22c0,9.9,6.3,16.2,15.9,16.2c4.8,0,11.5-2.2,15.1-3.9l5.2,16.7
		c-6.3,3.3-15.6,5.5-23.1,5.5c-10.1,0-18.7-3.2-25.1-9.1c-6.4-6-9.7-14.3-9.7-24c0-8.1,2.5-18.4,7.4-30.7l5.2-13l0.3-0.7H25H2.9V44
		h29.6h0.3l0.1-0.3L45.7,10.7 M473.3,42c25.1,0,42,16.5,42,41.2v55.2h-20.5v-13.8v-2.9l-1,2.8c-3.3,9.2-14.9,15.9-27.7,15.9
		c-18.5,0-30.4-10.1-30.4-25.7c0-9.6,4.9-17.3,14.5-22.9c8-4.6,19.2-7.6,31.7-8.3l10.8-0.6l0.5,0v-0.5v-1.9
		c0-12.6-7.5-20.1-20.1-20.1c-12.4,0-20.4,7.4-21.4,19.8L431,78.1c0.8-10.7,5.1-19.7,12.7-26.1C451.3,45.5,461.5,42,473.3,42
		 M472.4,124.3c10.2,0,21.5-9,21.5-22v-5.5v-0.5l-0.5,0l-10.2,0.6c-12.4,0.9-25.6,5.6-25.6,16.2
		C457.6,121.3,465.3,124.3,472.4,124.3 M265.8,42c13.2,0,25.6,4.9,34.9,13.7c9.6,9.1,14.8,21.7,14.8,35.4s-5.3,26.3-14.8,35.4
		c-9.3,8.9-21.7,13.7-34.9,13.7c-13.1,0-25.4-4.9-34.7-13.7c-9.5-9.1-14.8-21.7-14.8-35.4s5.2-26.3,14.8-35.4
		C240.4,46.9,252.7,42,265.8,42 M265.8,121.8c15.8,0,27.3-12.9,27.3-30.6s-11.5-30.6-27.3-30.6c-15.6,0-27,12.9-27,30.6
		S250.2,121.8,265.8,121.8 M614.9,44l-38.6,95.6c-10,24.5-24.7,36.9-43.7,36.9c-5.1,0-8.6-0.4-11.9-1.3v-18.8
		c3.1,0.8,6.4,1.2,9.2,1.2c11.1,0,17.8-4.8,23.1-16.6l1.9-4.4l0.1-0.2l-0.1-0.2L515.1,44h24.6l26.4,68.1l0.5,1.3l0.4-1.3L590.3,44
		L614.9,44 M422.5,1h-22.9v55.7c-5.8-10.8-18.8-15.2-29.5-15.2c-27.3,0-47.5,22.1-47.5,49.9c0,28.4,21.2,49.4,47.5,49.4
		c12.1,0,24.8-4.4,30.6-15.2v13.2h21.8L422.5,1L422.5,1z M373.7,122.1c-16.6,0-27.6-14.6-27.6-30.6c0-16.6,10.5-30.6,27.6-30.6
		c16.8,0,27.3,13.2,27.3,30.6C401,108.3,390.5,122.1,373.7,122.1L373.7,122.1z M45.4,10.1l-13,33.4H2.4v19.9H25l-5.2,13
		c-5,12.4-7.4,22.9-7.4,30.9c0,20.1,14.6,33.7,35.3,33.7c7.4,0,17.1-2.2,23.7-5.8l-5.5-17.7c-3.3,1.7-10.5,4.1-15.4,4.1
		c-8.6,0-15.4-5.2-15.4-15.7c0-6.9,1.7-13.8,4.7-21.8l8-20.7h25.6l24.8,75.6h27.9l18.2-71.2l17.9,71.2h27l31.5-95.5h-24l-21,72.3
		l-16.8-72.3h-29.5l-16.8,72.3l-21-72.3H55.3l10.2-25.4L45.4,10.1L45.4,10.1z M473.3,41.5c-24,0-41.4,14.3-42.8,37l21.5,2.2
		c0.8-12.4,8.6-19.9,21-19.9s19.6,7.4,19.6,19.6v1.9l-10.8,0.6c-22.9,1.4-46.6,10.5-46.6,31.7c0,16.8,13.2,26.2,30.9,26.2
		c13.2,0,24.8-6.9,28.1-16.3v14.3h21.5V83.2C515.8,56.7,497,41.5,473.3,41.5L473.3,41.5z M472.4,123.8c-7.7,0-14.3-3.3-14.3-10.8
		c0-10.5,13.5-14.9,25.1-15.7l10.2-0.6v5.5C493.4,112.2,484.9,123.8,472.4,123.8L472.4,123.8z M265.8,41.5
		c-26.8,0-49.9,20.4-49.9,49.7s23.2,49.7,49.9,49.7c27,0,50.2-20.4,50.2-49.7S292.8,41.5,265.8,41.5L265.8,41.5z M265.8,121.3
		c-16,0-26.5-13.5-26.5-30.1c0-16.6,10.5-30.1,26.5-30.1c16.3,0,26.8,13.5,26.8,30.1C292.6,107.8,282.1,121.3,265.8,121.3
		L265.8,121.3z M615.6,43.5H590l-23.5,68.4L540,43.5h-25.7l40,93l-1.9,4.4c-4.7,10.5-10.8,16.3-22.6,16.3c-3,0-6.6-0.6-9.7-1.4v19.9
		c3.9,1.1,7.7,1.4,12.4,1.4c22.1,0,35.6-16.3,44.1-37.2L615.6,43.5L615.6,43.5z"/>
</g>
</svg>
