<?xml version="1.0" encoding="UTF-8"?>
<svg id="Layer_2" data-name="Layer 2" xmlns="http://www.w3.org/2000/svg" viewBox="0 0 901.34 206.49">
  <defs>
    <style>
      .cls-1 {
        fill: #1d1d1d;
      }

      .cls-1, .cls-2 {
        stroke-width: 0px;
      }

      .cls-2 {
        fill: #a0e7a1;
      }
    </style>
  </defs>
  <g id="Layer_1-2" data-name="Layer 1">
    <g>
      <g>
        <path class="cls-1" d="m268.43,171.85l-48.93-138.83h23.49l36.89,116.31h.19l36.7-116.31h22.52l-47.77,138.83h-23.11Z"/>
        <path class="cls-1" d="m352.18,55.15v-20.58h21.55v20.58h-21.55Zm1.16,116.69v-99.02h19.03v99.02h-19.03Z"/>
        <path class="cls-1" d="m421.75,171.85l-35.34-99.02h20.39l26.02,79.41h.19l25.63-79.41h19.8l-35.34,99.02h-21.36Z"/>
        <path class="cls-1" d="m577.86,127.38h-76.11c.39,16.5,10.1,31.84,29.71,31.84,17.48,0,24.27-11.26,26.02-17.86h19.42c-5.24,19.03-19.8,33.4-45.82,33.4-31.46,0-48.93-22.33-48.93-52.62s18.64-52.43,48.93-52.43,46.99,19.81,46.99,50.48c0,2.72,0,5.63-.19,7.18Zm-19.61-14.95c0-15.53-10.87-27.18-27.77-27.18-15.92,0-27.57,10.87-28.74,27.18h56.5Z"/>
        <path class="cls-1" d="m679.22,103.11v68.74h-19.03v-63.49c0-13.2-5.82-22.13-20.19-22.13-16.31,0-26.79,9.9-26.79,24.85v60.77h-19.03v-99.02h19.03v12.43h.39c5.24-7.57,15.53-15.34,32.62-15.34,18.25,0,33.01,10.49,33.01,33.2Z"/>
        <path class="cls-1" d="m770.09,33.02h19.03v138.83h-19.03v-11.65h-.39c-5.44,6.99-14.95,14.37-30.48,14.37-25.24,0-44.46-19.61-44.46-52.23s19.22-52.42,44.46-52.42c15.53,0,25.05,7.18,30.48,14.95h.39v-51.84Zm-.19,89.32c0-22.52-10.49-36.5-27.57-36.5-18.64,0-27.77,17.09-27.77,36.5s9.13,36.5,27.77,36.5c17.09,0,27.57-14.17,27.57-36.5Z"/>
        <path class="cls-1" d="m901.15,127.38h-76.11c.39,16.5,10.1,31.84,29.71,31.84,17.48,0,24.27-11.26,26.02-17.86h19.42c-5.24,19.03-19.8,33.4-45.82,33.4-31.46,0-48.93-22.33-48.93-52.62s18.64-52.43,48.93-52.43,46.99,19.81,46.99,50.48c0,2.72,0,5.63-.19,7.18Zm-19.61-14.95c0-15.53-10.87-27.18-27.77-27.18-15.92,0-27.57,10.87-28.74,27.18h56.5Z"/>
      </g>
      <path class="cls-2" d="m109.08,0h39.57c3.31,0,6,2.69,6,6v38.68c0,3.31-2.69,6-6,6h-45.57V6C103.08,2.69,105.76,0,109.08,0Z"/>
      <path class="cls-2" d="m6,0h39.57c3.31,0,6,2.69,6,6v44.68H6c-3.31,0-6-2.69-6-6V6C0,2.69,2.69,0,6,0Z"/>
      <path class="cls-2" d="m97.08,101.25h-39.57c-3.31,0-6-2.69-6-6v-44.68h51.57v44.68c0,3.31-2.69,6-6,6Z"/>
      <path class="cls-1" d="m109.08,105.24h39.57c3.31,0,6,2.69,6,6v38.68c0,3.31-2.69,6-6,6h-45.57v-44.68c0-3.31,2.69-6,6-6Z"/>
      <path class="cls-1" d="m6,105.24h39.57c3.31,0,6,2.69,6,6v44.68H6c-3.31,0-6-2.69-6-6v-38.68c0-3.31,2.69-6,6-6Z"/>
      <path class="cls-1" d="m97.08,206.49h-39.57c-3.31,0-6-2.69-6-6v-44.68h51.57v44.68c0,3.31-2.69,6-6,6Z"/>
    </g>
  </g>
</svg>