<svg xmlns="http://www.w3.org/2000/svg" width="123" height="33" viewBox="0 0 123 33" fill="none"><g clip-path="url(#clip0)"><path d="M24.5904 0.499208C25.4583 0.499208 25.8401 0.819224 26.0267 1.50192L30.2444 16.8627L32.3316 25.1745H32.4705L34.4188 16.9693L38.5411 1.50192C38.5934 1.19785 38.7617 0.92485 39.0116 0.738544C39.2616 0.552238 39.5743 0.466646 39.8862 0.499208H44.2905C45.0326 0.499208 45.358 0.955764 45.1237 1.77927L36.6405 31.4938C36.6177 31.663 36.5607 31.8261 36.4729 31.9734C36.3851 32.1206 36.2682 32.2491 36.1291 32.3513C35.99 32.4535 35.8315 32.5273 35.663 32.5683C35.4945 32.6094 35.3193 32.6169 35.1478 32.5904H30.2922C29.9552 32.6281 29.6166 32.5351 29.3484 32.3311C29.0801 32.1271 28.9034 31.8282 28.8559 31.498L24.5166 16.8669L22.6898 9.75406H22.564L20.6938 16.8627L16.3849 31.4938C16.3303 31.8207 16.1518 32.1151 15.8853 32.3178C15.6188 32.5205 15.2841 32.6164 14.9486 32.5861H10.08C9.73756 32.6248 9.39303 32.5333 9.11708 32.3301C8.84113 32.127 8.65468 31.8278 8.59598 31.4938L0.069382 1.77927C-0.160598 0.960031 0.208238 0.499208 0.937229 0.499208H5.35457C5.66645 0.466646 5.97922 0.552238 6.22915 0.738544C6.47908 0.92485 6.64738 1.19785 6.69974 1.50192L10.8263 16.9523L12.7747 25.1105H12.8658L14.953 16.8627L19.2184 1.50192C19.405 0.819224 19.7739 0.499208 20.6547 0.499208H24.5947H24.5904Z" fill="#212E7C"></path><path d="M87.5094 31.4512C87.5094 32.2704 87.1406 32.5904 86.3986 32.5904H82.1808C81.3911 32.5904 81.0223 32.2704 81.0223 31.4512V20.784L70.1742 1.822C70.0843 1.68878 70.0342 1.53341 70.0297 1.3736C70.0253 1.21378 70.0666 1.05594 70.1489 0.918064C70.2312 0.780191 70.3512 0.667829 70.4953 0.593784C70.6394 0.519739 70.8018 0.486988 70.9639 0.499265H75.4116C75.7425 0.480218 76.0707 0.567822 76.3463 0.748783C76.622 0.929745 76.8301 1.19419 76.939 1.50198L82.0854 11.1664L84.255 15.6339H84.3027L86.4333 11.1664L91.6404 1.50198C91.9658 0.908885 92.2913 0.499265 93.1678 0.499265H97.6329C97.795 0.486988 97.9573 0.519739 98.1014 0.593784C98.2455 0.667829 98.3656 0.780191 98.4479 0.918064C98.5302 1.05594 98.5715 1.21378 98.567 1.3736C98.5625 1.53341 98.5125 1.68878 98.4226 1.822L87.5311 20.784V31.4512H87.5094Z" fill="#212E7C"></path><path d="M110.581 33C106.316 33 102.562 32.2234 100.523 31.2207C99.8719 30.9007 99.5508 30.5807 99.8285 29.8553L100.939 26.9368C101.169 26.2541 101.543 25.9341 102.328 26.2541C104.674 27.1722 107.179 27.6358 109.705 27.6195C113.736 27.6195 116.517 26.4333 116.517 23.7793C116.517 21.1253 113.597 20.0884 109.982 18.7188C105.023 16.8968 100.341 15.0279 100.341 8.73856C100.336 2.96121 104.367 0 112.109 0C116.096 0 119.155 0.776571 120.961 1.59581C121.611 1.91583 121.933 2.23584 121.655 2.96121L120.587 5.78588C120.31 6.46858 119.937 6.69899 119.103 6.42591C117.051 5.71302 114.884 5.37325 112.707 5.4232C108.767 5.4232 106.819 6.47285 106.819 8.8879C106.819 11.4864 109.462 12.3526 113.028 13.7649C118.175 15.8173 123.009 17.5497 123.009 23.8817C123.009 30.2137 117.719 33 110.581 33Z" fill="#212E7C"></path><path d="M55.5422 16.2824L58.7836 6.79291H58.9225L62.0944 16.2824H68.2084L62.8408 1.54892C62.6108 0.866219 62.3288 0.499268 61.4522 0.499268H56.1671C55.2992 0.499268 55.0085 0.861952 54.7785 1.54892L49.4282 16.2824H55.5031H55.5422Z" fill="#00E0B5"></path><path d="M47.4843 21.6373L43.9738 31.3146C43.6961 32.0442 44.0649 32.5947 44.8417 32.5947H48.8598C49.6018 32.5947 49.9272 32.2746 50.1616 31.5919L52.2921 25.6183L53.672 21.6373H47.4843Z" fill="#212E7C"></path><path d="M73.6412 31.3146L70.1307 21.6373H63.8475L65.1493 25.6183L67.2582 31.5749C67.4882 32.2576 67.8136 32.5776 68.6033 32.5776H72.795C73.5457 32.5904 73.9189 32.04 73.6412 31.3146Z" fill="#212E7C"></path></g><defs><clipPath id="clip0"><rect width="123" height="33" fill="white"></rect></clipPath></defs></svg>